<?xml version="1.0" encoding="UTF-8"?>
<svg width="132px" height="87px" viewBox="0 0 132 87" version="1.1" xmlns="http://www.w3.org/2000/svg" xmlns:xlink="http://www.w3.org/1999/xlink">
    <title>androidSVG</title>
    <defs>
        <rect id="path-1" x="0" y="0" width="123" height="79" rx="19"></rect>
        <filter x="-5.7%" y="-6.3%" width="111.4%" height="117.7%" filterUnits="objectBoundingBox" id="filter-2">
            <feOffset dx="0" dy="2" in="SourceAlpha" result="shadowOffsetOuter1"></feOffset>
            <feGaussianBlur stdDeviation="2" in="shadowOffsetOuter1" result="shadowBlurOuter1"></feGaussianBlur>
            <feColorMatrix values="0 0 0 0 0.48627451   0 0 0 0 0.552941176   0 0 0 0 0.666666667  0 0 0 0.4 0" type="matrix" in="shadowBlurOuter1"></feColorMatrix>
        </filter>
    </defs>
    <g id="Page-1" stroke="none" stroke-width="1" fill="none" fill-rule="evenodd">
        <g id="Desktop-HD" transform="translate(-687.000000, -1265.000000)">
            <g id="Group" transform="translate(691.027473, 1267.000000)">
                <g id="Rectangle-Copy-6">
                    <use fill="black" fill-opacity="1" filter="url(#filter-2)" xlink:href="#path-1"></use>
                    <use fill="#FFFFFF" fill-rule="evenodd" xlink:href="#path-1"></use>
                </g>
                <g id="Group-27" transform="translate(31.972527, 13.000000)">
                    <path d="M20,12 L41,12 L41,29.4713359 C41,29.4713359 40.6797564,31.0265076 39.4614792,31.0265076 L37.1212493,31.0265076 L37.1212493,36.6344358 C37.1212493,36.6344358 37.0242963,39 34.7802338,39 C32.5364855,39 32.4396896,36.6344358 32.4396896,36.6344358 L32.4396896,31.1882366 L28.593309,31.1882366 L28.593309,36.7963236 C28.593309,36.7963236 28.6248934,38.9350224 26.1877105,38.902772 C26.1877105,38.902772 23.9441194,38.8713158 23.9441194,36.6344358 L23.9441194,31.0911675 L21.6680011,31.0911675 C21.6680011,31.0911675 20,31.1882366 20,29.4047696 L20,12 Z" id="Fill-1" fill="#6CB74A"></path>
                    <path d="M42,14.3784893 C42,14.3784893 42.0008244,12 43.9906972,12 C45.9809822,12 45.9949973,14.0433498 45.9949973,14.3952381 L45.9949973,24.7642036 C45.9949973,24.7642036 46.1913464,27 44.1238409,27 C42.0568849,27 42,25.3674877 42,24.663711 L42,14.3784893 Z" id="Fill-3" fill="#6CB74A"></path>
                    <path d="M13,14.3784893 C13,14.3784893 13,12 14.9906936,12 C16.9809751,12 16.9949902,14.0433498 16.9949902,14.3952381 L16.9949902,24.7642036 C16.9949902,24.7642036 17.1914763,27 15.1234249,27 C13.0560604,27 13,25.3674877 13,24.663711 L13,14.3784893 Z" id="Fill-5" fill="#6CB74A"></path>
                    <path d="M35.5928717,3.42268808 L37.4075993,0.632729143 C37.7143979,0.181978236 37.3301931,0.0749982816 37.3301931,0.0749982816 C37.074737,-0.137004678 36.8701523,0.234652818 36.8701523,0.234652818 L34.9879102,3.14251802 C33.6696499,2.58266713 32.2008165,2.26580424 30.6442142,2.25014864 C29.0367405,2.23351456 27.5091851,2.54385428 26.1351861,3.11626227 C25.5699482,2.26906583 24.1072382,0.0860876671 24.0034542,0.0223237002 C23.8765897,-0.0575851075 23.6964987,0.102721745 23.6964987,0.102721745 C23.3650495,0.368051603 23.5179777,0.500634992 23.5179777,0.500634992 L25.432564,3.43654982 C22.5005495,4.91192733 20.4054012,7.64937477 20,11 L41,11 C40.6076307,7.63926386 38.5338358,4.89431478 35.5928717,3.42268808" id="Fill-7" fill="#6CB74A"></path>
                    <path d="M35,5.99966432 C35,6.5517959 34.5525415,7 34.0002014,7 C33.4477271,7 33,6.5517959 33,5.99966432 C33,5.447667 33.4477271,5 34.0002014,5 C34.5525415,5 35,5.447667 35,5.99966432" id="Fill-9" fill="#FFFFFE"></path>
                    <path d="M25,5.99966432 C25,6.5517959 24.5522288,7 24.0004028,7 C23.4480397,7 23,6.5517959 23,5.99966432 C23,5.447667 23.4480397,5 24.0004028,5 C24.5522288,5 25,5.447667 25,5.99966432" id="Fill-11" fill="#FFFFFE"></path>
                    <path d="M5.14594754,53 L5.14594754,51.0284155 L3.04889445,51.0284155 C3.04889445,51.0284155 1.35933189,50.2448208 1.45675288,48.4157735 C1.45675288,48.4157735 1.53460138,46.4452688 2.87480225,45.9949808 L6.40815275,45.9949808 L6.40815275,52.9287314 L8,52.9287314 L8,44 L3.16544645,44 C3.16544645,44 0.116993488,44.2139858 0,48.4883019 C0,48.4883019 0.0587174865,52.3589426 3.39884478,52.9755239 L5.14594754,53 Z" id="Fill-13" fill="#5E5E5E"></path>
                    <path d="M51,51.1859596 L51,53 L55.656776,52.9294359 C55.656776,52.9294359 59.0387199,52.6672631 58.9978337,48.4643561 C58.9978337,48.4643561 59.2007928,44.3586104 55.6777097,44 L51.040232,44 L51.040232,45.9339994 L55.1921451,45.9339994 C55.1921451,45.9339994 57.3785761,46.1482248 57.1559916,48.6311769 C57.1559916,48.6311769 57.3985286,51.1143098 55.0907473,51.1624382 L51,51.1859596 Z" id="Fill-15" fill="#5E5E5E"></path>
                    <path d="M19.3333333,51.1859231 L19.3333333,53 L23.989973,52.9283488 C23.989973,52.9283488 27.371892,52.6661708 27.3311677,48.464084 C27.3311677,48.464084 27.5341351,44.3573511 24.0102534,44 L19.373567,44 L19.373567,45.9329527 L23.5246689,45.9329527 C23.5246689,45.9329527 25.7116802,46.1489918 25.4884323,48.631089 C25.4884323,48.631089 25.7316335,51.1142719 23.4231034,51.1613156 L19.3333333,51.1859231 Z" id="Fill-17" fill="#5E5E5E"></path>
                    <path d="M11.2792443,53 L9.66666667,53 L9.72987662,47.7602698 C9.72987662,47.7602698 9.9634157,43.9575294 13.6982716,44.0024137 C13.6982716,44.0024137 17.3482043,43.7748846 17.6666667,47.7380002 L17.6666667,52.9539072 L15.9484174,52.9539072 L15.9484174,48.2852441 C15.9484174,48.2852441 15.7570183,45.8242005 13.5502992,46.0755529 C13.5502992,46.0755529 11.3434193,45.8017583 11.300636,48.3986634 L11.2792443,53 Z" id="Fill-19" fill="#5E5E5E"></path>
                    <path d="M29.0517522,45.9198149 L29.0517522,44 L33.5343281,44 C33.5343281,44 35.9993683,44.0387605 35.9993683,47.1812427 C35.9993683,47.1812427 36.0685849,48.8297344 34.7579558,49.8585994 C34.7579558,49.8585994 34.6190419,49.9359401 34.715817,50.0657426 C34.7271928,50.0789031 34.7406516,50.0944073 34.7579558,50.1095509 C34.9306768,50.264773 35.7580715,50.9056728 35.7580715,53 L34.0340655,53 C34.0340655,53 33.9305611,50.537178 32.1890907,50.537178 L29,50.537178 L29,48.4030087 L33.2757272,48.4030087 C33.2757272,48.4030087 34.2758429,48.3447779 34.2409142,47.0831697 C34.2409142,47.0831697 34.3615626,45.9003445 33.0688785,45.9003445 L29.0517522,45.9198149 Z" id="Fill-21" fill="#5E5E5E"></path>
                    <path d="M41.6668209,51.0915415 C40.3945214,51.0915415 39.3627062,49.9316482 39.3627062,48.4990434 C39.3627062,47.0681779 40.3945214,45.907241 41.6668209,45.907241 C42.9389662,45.907241 43.9698559,47.0681779 43.9698559,48.4990434 C43.9698559,49.9316482 42.9389662,51.0915415 41.6668209,51.0915415 M41.6668209,44 C39.457419,44 37.6666667,46.0147255 37.6666667,48.4990434 C37.6666667,50.9861441 39.457419,53 41.6668209,53 C43.8759143,53 45.6666667,50.9861441 45.6666667,48.4990434 C45.6666667,46.0147255 43.8759143,44 41.6668209,44" id="Fill-23" fill="#5E5E5E"></path>
                    <polygon id="Fill-25" fill="#5E5E5E" points="47.3333333 53 49.3333333 53 49.3333333 44 47.3333333 44"></polygon>
                </g>
            </g>
        </g>
    </g>
</svg>