<?xml version="1.0" encoding="UTF-8"?>
<svg width="35px" height="35px" viewBox="0 0 35 35" version="1.1" xmlns="http://www.w3.org/2000/svg" xmlns:xlink="http://www.w3.org/1999/xlink">
    <title>ico12SVG</title>
    <defs>
        <filter id="filter-1">
            <feColorMatrix in="SourceGraphic" type="matrix" values="0 0 0 0 0.905882 0 0 0 0 0.019608 0 0 0 0 0.188235 0 0 0 1.000000 0"></feColorMatrix>
        </filter>
    </defs>
    <g id="Page-1" stroke="none" stroke-width="1" fill="none" fill-rule="evenodd">
        <g id="Desktop-HD" transform="translate(-525.000000, -2682.000000)">
            <g id="Group-38" transform="translate(113.000000, 2599.000000)">
                <g id="ico12" transform="translate(412.000000, 83.000000)" filter="url(#filter-1)">
                    <g id="24-hours" fill="#000000" fill-rule="nonzero">
                        <path d="M13.4166667,25.0833333 L11.0833333,25.0833333 L11.0833333,22.1666667 L9.91666667,22.1666667 L9.91666667,25.6666667 C9.91666667,25.9888328 10.1778339,26.25 10.5,26.25 L13.4166667,26.25 L13.4166667,29.1666667 L14.5833333,29.1666667 L14.5833333,22.1666667 L13.4166667,22.1666667 L13.4166667,25.0833333 Z" id="Path"></path>
                        <path d="M8.16666667,22.1666667 L4.08333333,22.1666667 L4.08333333,23.3333333 L7.58333333,23.3333333 L7.58333333,25.0833333 L4.66666667,25.0833333 C4.34450056,25.0833333 4.08333333,25.3445006 4.08333333,25.6666667 L4.08333333,28.5833333 C4.08333333,28.9054994 4.34450056,29.1666667 4.66666667,29.1666667 L8.75,29.1666667 L8.75,28 L5.25,28 L5.25,26.25 L8.16666667,26.25 C8.48883277,26.25 8.75,25.9888328 8.75,25.6666667 L8.75,22.75 C8.75,22.4278339 8.48883277,22.1666667 8.16666667,22.1666667 Z" id="Path"></path>
                        <path d="M9.33333333,16.3333333 C4.17867567,16.3333333 0,20.512009 0,25.6666667 C0,30.8213243 4.17867567,35 9.33333333,35 C14.487991,35 18.6666667,30.8213243 18.6666667,25.6666667 C18.6579962,20.5156047 14.4843953,16.3420038 9.33333333,16.3333333 L9.33333333,16.3333333 Z M11.5266667,33.5358333 C8.14945978,34.4774496 4.54806874,33.158394 2.57795472,30.2582529 C0.607840701,27.3581118 0.708657291,23.5240851 2.8284631,20.7314893 C4.94826891,17.9388936 8.61400489,16.8109287 11.9370589,17.9287299 C15.260113,19.0465311 17.4989074,22.1606481 17.5,25.6666667 C17.4951938,29.3312196 15.054984,32.5459101 11.5266667,33.5358333 L11.5266667,33.5358333 Z" id="Shape"></path>
                        <path d="M8.75,10.5 L8.75,15.1666667 L9.91666667,15.1666667 L9.91666667,11.0833333 L12.8333333,11.0833333 L12.8333333,9.91666667 L9.33333333,9.91666667 C9.01116723,9.91666667 8.75,10.1778339 8.75,10.5 Z" id="Path"></path>
                        <path d="M25.0833333,25.6666667 L25.0833333,22.1666667 L23.9166667,22.1666667 L23.9166667,25.0833333 L19.8333333,25.0833333 L19.8333333,26.25 L24.5,26.25 C24.8221661,26.25 25.0833333,25.9888328 25.0833333,25.6666667 Z" id="Path"></path>
                        <path d="M4.08333333,12.8333333 C4.0887983,8.00310725 8.00310725,4.0887983 12.8333333,4.08333333 L12.8333333,2.91666667 C7.35904161,2.92277476 2.92277476,7.35904161 2.91666667,12.8333333 L2.91666667,16.3333333 L4.08333333,16.3333333 L4.08333333,12.8333333 Z" id="Path"></path>
                        <path d="M30.9166667,22.1666667 C30.9112017,26.9968928 26.9968928,30.9112017 22.1666667,30.9166667 L22.1666667,32.0833333 C27.6409584,32.0772252 32.0772252,27.6409584 32.0833333,22.1666667 L32.0833333,20.4166667 L30.9166667,20.4166667 L30.9166667,22.1666667 Z" id="Path"></path>
                        <polygon id="Path" points="19.8333333 30.9166667 21 30.9166667 21 32.0833333 19.8333333 32.0833333"></polygon>
                        <path d="M34.51,8.1725 L32.2058333,7.7875 C32.1067204,7.50895994 31.9918118,7.23629553 31.8616667,6.97083333 L33.2266667,5.06333333 C33.388794,4.82964645 33.3618525,4.51369635 33.1625,4.31083333 L30.6891667,1.8375 C30.4878962,1.63471124 30.1693658,1.60754972 29.9366667,1.77333333 L28.0291667,3.13833333 C27.7637045,3.00818818 27.4910401,2.89327961 27.2125,2.79416667 L26.8275,0.49 C26.7816168,0.206917021 26.5367761,-0.00082658186 26.25,-2.45789968e-06 L22.75,-2.45789968e-06 C22.4632239,-0.00082658186 22.2183832,0.206917021 22.1725,0.49 L21.7875,2.79416667 C21.5089599,2.89327961 21.2362955,3.00818818 20.9708333,3.13833333 L19.0633333,1.77333333 C18.8306342,1.60754972 18.5121038,1.63471124 18.3108333,1.8375 L15.8375,4.31083333 C15.6381475,4.51369635 15.611206,4.82964645 15.7733333,5.06333333 L17.1383333,6.97083333 C17.0120788,7.23651933 16.9010655,7.50918347 16.8058333,7.7875 L14.49,8.1725 C14.206917,8.21838318 13.9991734,8.46322386 13.9999975,8.75 L13.9999975,12.25 C13.9991734,12.5367761 14.206917,12.7816168 14.49,12.8275 L16.7941667,13.2125 C16.8932796,13.4910401 17.0081882,13.7637045 17.1383333,14.0291667 L15.7733333,15.9366667 C15.611206,16.1703535 15.6381475,16.4863036 15.8375,16.6891667 L18.3108333,19.1625 C18.5121038,19.3652888 18.8306342,19.3924503 19.0633333,19.2266667 L20.9708333,17.8616667 C21.2362955,17.9918118 21.5089599,18.1067204 21.7875,18.2058333 L22.1725,20.51 C22.2183832,20.793083 22.4632239,21.0008266 22.75,20.9999975 L26.25,20.9999975 C26.5367761,21.0008266 26.7816168,20.793083 26.8275,20.51 L27.2125,18.2058333 C27.4910401,18.1067204 27.7637045,17.9918118 28.0291667,17.8616667 L29.9366667,19.2266667 C30.1693658,19.3924503 30.4878962,19.3652888 30.6891667,19.1625 L33.1625,16.6891667 C33.3618525,16.4863036 33.388794,16.1703535 33.2266667,15.9366667 L31.8616667,14.0291667 C31.9918118,13.7637045 32.1067204,13.4910401 32.2058333,13.2125 L34.51,12.8275 C34.793083,12.7816168 35.0008266,12.5367761 34.9999975,12.25 L34.9999975,8.75 C35.0008266,8.46322386 34.793083,8.21838318 34.51,8.1725 L34.51,8.1725 Z M33.8333333,11.7541667 L31.6633333,12.1158333 C31.4452836,12.1547158 31.2673456,12.3123824 31.2025,12.5241667 C31.066576,12.9677827 30.8888338,13.3974891 30.6716667,13.8075 C30.5663598,14.0018114 30.5799106,14.2389494 30.7066667,14.42 L31.99,16.2108333 L30.2108333,17.99 L28.42,16.7066667 C28.2389494,16.5799106 28.0018114,16.5663598 27.8075,16.6716667 C27.3974891,16.8888338 26.9677827,17.066576 26.5241667,17.2025 C26.3123824,17.2673456 26.1547158,17.4452836 26.1158333,17.6633333 L25.7541667,19.8333333 L23.2458333,19.8333333 L22.8841667,17.6633333 C22.8452842,17.4452836 22.6876176,17.2673456 22.4758333,17.2025 C22.0322173,17.066576 21.6025109,16.8888338 21.1925,16.6716667 C20.9981886,16.5663598 20.7610506,16.5799106 20.58,16.7066667 L18.7891667,17.99 L17.01,16.2108333 L18.2933333,14.42 C18.4200894,14.2389494 18.4336402,14.0018114 18.3283333,13.8075 C18.1111662,13.3974891 17.933424,12.9677827 17.7975,12.5241667 C17.7326544,12.3123824 17.5547164,12.1547158 17.3366667,12.1158333 L15.1666667,11.7541667 L15.1666667,9.24583333 L17.3366667,8.88416667 C17.5474357,8.84488692 17.7210407,8.69576472 17.7916667,8.49333333 C17.93477,8.04580827 18.1142579,7.61074509 18.3283333,7.1925 C18.4336402,6.99818864 18.4200894,6.76105063 18.2933333,6.58 L17.01,4.78916667 L18.7891667,3.01 L20.58,4.29333333 C20.7610506,4.42008942 20.9981886,4.43364016 21.1925,4.32833333 C21.6025109,4.11116618 22.0322173,3.93342396 22.4758333,3.7975 C22.6876176,3.73265437 22.8452842,3.55471639 22.8841667,3.33666667 L23.2458333,1.16666667 L25.7541667,1.16666667 L26.1158333,3.33666667 C26.1547158,3.55471639 26.3123824,3.73265437 26.5241667,3.7975 C26.9677827,3.93342396 27.3974891,4.11116618 27.8075,4.32833333 C28.0018114,4.43364016 28.2389494,4.42008942 28.42,4.29333333 L30.2108333,3.01 L31.99,4.78916667 L30.7066667,6.58 C30.5799106,6.76105063 30.5663598,6.99818864 30.6716667,7.1925 C30.8888338,7.60251086 31.066576,8.03221734 31.2025,8.47583333 C31.2673456,8.6876176 31.4452836,8.84528416 31.6633333,8.88416667 L33.8333333,9.24583333 L33.8333333,11.7541667 Z" id="Shape"></path>
                        <path d="M24.5,5.25 C21.6005051,5.25 19.25,7.60050506 19.25,10.5 C19.25,13.3994949 21.6005051,15.75 24.5,15.75 C27.3994949,15.75 29.75,13.3994949 29.75,10.5 C29.7464644,7.6019708 27.3980292,5.25353556 24.5,5.25 L24.5,5.25 Z M24.5,14.5833333 C22.2448373,14.5833333 20.4166667,12.7551627 20.4166667,10.5 C20.4166667,8.24483727 22.2448373,6.41666667 24.5,6.41666667 C26.7551627,6.41666667 28.5833333,8.24483727 28.5833333,10.5 C28.5807616,12.7540966 26.7540966,14.5807616 24.5,14.5833333 L24.5,14.5833333 Z" id="Shape"></path>
                        <polygon id="Path" points="14 2.91666667 15.1666667 2.91666667 15.1666667 4.08333333 14 4.08333333"></polygon>
                    </g>
                </g>
            </g>
        </g>
    </g>
</svg>