<?xml version="1.0" encoding="UTF-8"?>
<svg width="30px" height="30px" viewBox="0 0 30 30" version="1.1" xmlns="http://www.w3.org/2000/svg" xmlns:xlink="http://www.w3.org/1999/xlink">
    <title>ico13SVG</title>
    <defs>
        <filter id="filter-1">
            <feColorMatrix in="SourceGraphic" type="matrix" values="0 0 0 0 0.905882 0 0 0 0 0.019608 0 0 0 0 0.188235 0 0 0 1.000000 0"></feColorMatrix>
        </filter>
    </defs>
    <g id="Page-1" stroke="none" stroke-width="1" fill="none" fill-rule="evenodd">
        <g id="Desktop-HD" transform="translate(-197.000000, -2752.000000)">
            <g id="Group-38" transform="translate(113.000000, 2599.000000)">
                <g id="ico13" transform="translate(84.000000, 153.000000)" filter="url(#filter-1)">
                    <g id="implement" fill="#000000" fill-rule="nonzero">
                        <path d="M2.5,30 L25,30 C25.2761231,30 25.5,29.7761231 25.5,29.5 L25.5,16.5 L24.5,16.5 L24.5,29 L2.5,29 C1.67163088,29 1,28.3283691 1,27.5 C1,26.6716309 1.67163088,26 2.5,26 L3.5,26 C3.77612306,26 4,25.7761231 4,25.5 L4,10.5 L12,10.5 L12,9.5 L4,9.5 L4,6 C4,5.72387694 3.77612306,5.5 3.5,5.5 L2.5,5.5 C1.11987306,5.501709 0.0017089875,6.61987306 0,8 L0,27.5 C0.0017089875,28.8801269 1.11987306,29.998291 2.5,30 Z M1,10 L1,8 C1,7.17163087 1.67163087,6.5 2.5,6.5 L3,6.5 L3,25 L2.5,25 C1.95898438,24.9992676 1.43237306,25.1748047 1,25.5 L1,10 Z" id="Shape"></path>
                        <path d="M11.5,12 L5.5,12 C5.22387694,12 5,12.2238769 5,12.5 L5,16.5 C5,16.7761231 5.22387694,17 5.5,17 L11.5,17 C11.7761231,17 12,16.7761231 12,16.5 L12,15 L14,15 L14,14 L12,14 L12,12.5 C12,12.2238769 11.7761231,12 11.5,12 Z M11,16 L6,16 L6,13 L11,13 L11,16 Z" id="Shape"></path>
                        <path d="M16.5,26 L22.5,26 C22.7761231,26 23,25.7761231 23,25.5 L23,21.5 C23,21.2238769 22.7761231,21 22.5,21 L20,21 L20,18 L19,18 L19,21 L16.5,21 C16.2238769,21 16,21.2238769 16,21.5 L16,23 L12,23 L12,21.5 C12,21.2238769 11.7761231,21 11.5,21 L5.5,21 C5.22387694,21 5,21.2238769 5,21.5 L5,25.5 C5,25.7761231 5.22387694,26 5.5,26 L11.5,26 C11.7761231,26 12,25.7761231 12,25.5 L12,24 L16,24 L16,25.5 C16,25.7761231 16.2238769,26 16.5,26 Z M17,22 L22,22 L22,25 L17,25 L17,22 Z M11,25 L6,25 L6,22 L11,22 L11,25 Z" id="Shape"></path>
                        <path d="M21.5,4 C19.0146484,4 17,6.01464844 17,8.5 C17,10.9853516 19.0146484,13 21.5,13 C23.9853516,13 26,10.9853516 26,8.5 C25.9973144,6.01586913 23.9841309,4.00268556 21.5,4 Z M21.5,12 C19.5668945,12 18,10.4331055 18,8.5 C18,6.5668945 19.5668945,5 21.5,5 C23.4331055,5 25,6.5668945 25,8.5 C24.9978028,10.4321289 23.4321289,11.9978027 21.5,12 Z" id="Shape"></path>
                        <path d="M29.5,10.5 C29.7761231,10.5 30,10.2761231 30,10 L30,7 C30,6.72387694 29.7761231,6.5 29.5,6.5 L27.6784668,6.5 C27.5717774,6.171875 27.4394531,5.85253906 27.282959,5.54492188 L28.5729981,4.2595215 C28.6669922,4.1657715 28.7199707,4.03833006 28.7199707,3.90551756 C28.7199707,3.77270506 28.6669922,3.64526369 28.5729981,3.55151369 L26.4499512,1.42651369 C26.3562012,1.33276369 26.2290039,1.28002931 26.0964356,1.28002931 C25.9638672,1.28027344 25.8366699,1.33300781 25.7429199,1.42700194 L24.4550781,2.717041 C24.1474609,2.56054688 23.828125,2.42846681 23.5,2.32153319 L23.5,0.5 C23.5,0.223876937 23.2761231,0 23,0 L20,0 C19.7238769,0 19.5,0.223876938 19.5,0.5 L19.5,2.32153319 C19.171875,2.42846681 18.8525391,2.56054688 18.5449219,2.717041 L17.2590332,1.42700194 C17.1652832,1.33300781 17.0380859,1.28027344 16.9055176,1.28002931 C16.7729493,1.28002931 16.6457519,1.33276369 16.5520019,1.42651369 L14.4265137,3.55004881 C14.3325195,3.64379881 14.279541,3.77124025 14.279541,3.90405275 C14.279541,4.03686525 14.3325195,4.16430663 14.4265137,4.25805663 L15.7165527,5.543457 C15.5600586,5.8515625 15.4279785,6.17138675 15.3215332,6.5 L13.5,6.5 C13.2238769,6.5 13,6.72387694 13,7 L13,10 C13,10.2761231 13.2238769,10.5 13.5,10.5 L15.3215332,10.5 C15.4282226,10.828125 15.5605469,11.1474609 15.717041,11.4550781 L14.4270019,12.7404785 C14.3327637,12.8342285 14.2797851,12.9619141 14.2797851,13.0947266 C14.2797851,13.2277832 14.3327637,13.3552246 14.4270019,13.4489746 L16.5500488,15.5686035 C16.7453613,15.7636719 17.0617676,15.7636719 17.2570801,15.5686035 L18.5429688,14.282959 C18.8513184,14.4394531 19.1713867,14.5715332 19.5,14.6784668 L19.5,16.5 C19.5,16.7761231 19.7238769,17 20,17 L23,17 C23.2761231,17 23.5,16.7761231 23.5,16.5 L23.5,14.6784668 C23.8283691,14.5715332 24.1477051,14.4394531 24.4555664,14.282959 L25.7414551,15.5686035 C25.9367676,15.7634277 26.2526856,15.7634277 26.4479981,15.5686035 L28.5729981,13.4484863 C28.6672363,13.3547363 28.7202149,13.2272949 28.7202149,13.0942383 C28.7202149,12.9611816 28.6672363,12.8337402 28.5729981,12.7399902 L27.282959,11.4545899 C27.4394531,11.1472168 27.5717774,10.8278809 27.6784668,10.5 L29.5,10.5 Z M26.8220215,9.87255862 C26.6904297,10.3703613 26.4924316,10.8481445 26.2329101,11.2929688 C26.1184082,11.4895019 26.1508789,11.7385254 26.3120117,11.8989258 L27.5119629,13.0949707 L26.095459,14.5085449 L24.8999024,13.3115234 C24.7395019,13.1508789 24.4907226,13.1186524 24.2944336,13.2329101 C23.8498535,13.4924316 23.3718262,13.6904297 22.8740234,13.8215332 C22.6538086,13.8789062 22.5002441,14.0776367 22.5,14.3049316 L22.5,16 L20.5,16 L20.5,14.3049316 C20.5,14.0778809 20.3469238,13.8793945 20.1274414,13.8215332 C19.6296387,13.6904297 19.1516113,13.4924316 18.7070312,13.2329101 C18.5107422,13.1186524 18.2619629,13.1508789 18.1015625,13.3115234 L16.9050293,14.5080566 L15.4885254,13.0949707 L16.6884766,11.8989258 C16.8496094,11.7385254 16.8820801,11.4895019 16.7675781,11.2929688 C16.5080566,10.8481445 16.3100586,10.3703613 16.1784668,9.87255862 C16.1206055,9.65307619 15.9221191,9.5 15.6950684,9.5 L14,9.5 L14,7.5 L15.6950684,7.5 C15.921875,7.49975587 16.1201172,7.34692381 16.1779785,7.12744138 C16.3095703,6.62963869 16.5075684,6.1518555 16.7670899,5.70703125 C16.8815918,5.51049806 16.8491211,5.26147462 16.6879882,5.10107425 L15.4880371,3.904541 L16.9050293,2.48754881 L18.1015625,3.6875 C18.2619629,3.84863281 18.5109863,3.8811035 18.7075195,3.76660156 C19.1520996,3.50708006 19.6301269,3.309082 20.1279297,3.1779785 C20.347168,3.11987306 20.4997559,2.92163087 20.5,2.69506837 L20.5,1 L22.5,1 L22.5,2.69506837 C22.5,2.92211913 22.6530762,3.1206055 22.8725586,3.17846681 C23.3703613,3.30957031 23.8483887,3.50756837 24.2929688,3.76708987 C24.4897461,3.88208006 24.7392578,3.84960938 24.8999024,3.68798825 L26.0964356,2.48803712 L27.5134277,3.90502931 L26.3134766,5.1015625 C26.1523437,5.26196288 26.1198731,5.51098631 26.2346191,5.7075195 C26.4938965,6.15234375 26.6918945,6.63012694 26.8234863,7.12792969 C26.8813476,7.34667969 27.0788574,7.49926756 27.3049316,7.5 L29,7.5 L29,9.5 L27.3049316,9.5 C27.078125,9.50024413 26.8798828,9.65307619 26.8220215,9.87255862 L26.8220215,9.87255862 Z" id="Shape"></path>
                        <path d="M21.5,6.5 C20.3955078,6.5 19.5,7.39550781 19.5,8.5 C19.5,9.60449219 20.3955078,10.5 21.5,10.5 C22.6044922,10.5 23.5,9.60449219 23.5,8.5 C23.5,7.39550781 22.6044922,6.5 21.5,6.5 Z M21.5,9.5 C20.9477539,9.5 20.5,9.05224612 20.5,8.5 C20.5,7.94775388 20.9477539,7.5 21.5,7.5 C22.0522461,7.5 22.5,7.94775388 22.5,8.5 C22.5,9.05224612 22.0522461,9.5 21.5,9.5 Z" id="Shape"></path>
                    </g>
                </g>
            </g>
        </g>
    </g>
</svg>