<?xml version="1.0" encoding="UTF-8"?>
<svg width="30px" height="30px" viewBox="0 0 30 30" version="1.1" xmlns="http://www.w3.org/2000/svg" xmlns:xlink="http://www.w3.org/1999/xlink">
    <title>ico10SVG</title>
    <defs>
        <filter id="filter-1">
            <feColorMatrix in="SourceGraphic" type="matrix" values="0 0 0 0 0.905882 0 0 0 0 0.019608 0 0 0 0 0.188235 0 0 0 1.000000 0"></feColorMatrix>
        </filter>
    </defs>
    <g id="Page-1" stroke="none" stroke-width="1" fill="none" fill-rule="evenodd">
        <g id="Desktop-HD" transform="translate(-290.000000, -2615.000000)">
            <g id="Group-38" transform="translate(113.000000, 2599.000000)">
                <g id="ico10" transform="translate(177.000000, 16.000000)" filter="url(#filter-1)">
                    <g id="24-hours-support" fill="#000000" fill-rule="nonzero">
                        <path d="M29.902207,9.96959064 C29.7938086,9.80526316 29.6104102,9.70643275 29.4129492,9.70643275 L26.883457,9.70643275 C26.5600195,9.70643275 26.2975195,9.96842105 26.2975195,10.2912281 C26.2975195,10.6140351 26.5600195,10.8760234 26.883457,10.8760234 L28.5223242,10.8760234 L26.8541602,14.7380117 C26.7258398,15.0345029 26.8629492,15.3789474 27.1600195,15.5064327 C27.2356055,15.5391813 27.3141211,15.554386 27.3914648,15.554386 C27.6182227,15.554386 27.8344336,15.4222222 27.9299414,15.2011696 L29.9508398,10.522807 C30.0293555,10.3421053 30.0106055,10.1345029 29.902207,9.96959064 L29.902207,9.96959064 Z" id="Path"></path>
                        <path d="M24.7529883,9.70175439 C24.4512305,9.58421053 24.1119727,9.73274854 23.9941992,10.0339181 L22.1654883,14.7122807 C22.0477148,15.0128655 22.1971289,15.3520468 22.4983008,15.4695906 C22.5686133,15.4964912 22.6406836,15.5093567 22.7109961,15.5093567 C22.9453711,15.5093567 23.1668555,15.3684211 23.2570898,15.1374269 L25.0858008,10.4590643 C25.2035742,10.1578947 25.0541602,9.81871345 24.7529883,9.70175439 L24.7529883,9.70175439 Z" id="Path"></path>
                        <path d="M20.4100195,20.4017544 C20.0332617,19.7502924 19.4250586,19.2847953 18.6973242,19.0900585 C17.9695898,18.8953216 17.2096289,18.9953216 16.5568945,19.371345 L14.171543,20.7461988 C14.059043,20.8111111 13.927793,20.8280702 13.8024023,20.7947368 C13.6770117,20.7608187 13.5721289,20.6807018 13.5076758,20.5684211 L8.13638672,11.2836257 C8.07134766,11.171345 8.05435547,11.0409357 8.08775391,10.9157895 C8.12173828,10.7906433 8.20201172,10.6859649 8.31451172,10.6210526 L10.6998633,9.24678363 C12.0469336,8.47076023 12.5098242,6.74561404 11.7322852,5.40116959 L9.42134766,1.40643275 C8.64380859,0.0625730994 6.91587891,-0.399415205 5.56880859,0.376608187 L4.75845703,0.843274854 C0.214511719,3.4619883 -1.34818359,9.28187135 1.27505859,13.8169591 L3.24908203,17.2292398 C3.41080078,17.5087719 3.76939453,17.6046784 4.04947266,17.4432749 C4.33013672,17.2818713 4.42564453,16.9239766 4.26392578,16.6444444 L2.28990234,13.2321637 C0.407871094,9.97777778 0.983847656,5.96959064 3.43833984,3.3619883 L7.27388672,9.99298246 C7.12681641,10.1725146 7.01783203,10.3824561 6.95572266,10.6128655 C6.84146484,11.0397661 6.90005859,11.4859649 7.12154297,11.8684211 L12.492832,21.1532164 C12.7137305,21.5362573 13.0717383,21.8099415 13.4994727,21.9245614 C13.730332,21.9859649 13.9670508,21.997076 14.1967383,21.9590643 L18.0094336,28.5508772 C16.6822852,28.8649123 15.2900977,28.8479532 13.9359961,28.4853801 C11.7832617,27.9099415 9.98384766,26.5315789 8.86939453,24.6052632 L6.90064453,21.2023392 C6.73892578,20.9222222 6.38033203,20.8269006 6.10025391,20.9883041 C5.82017578,21.1497076 5.72408203,21.5070175 5.88580078,21.7871345 L7.85455078,25.1900585 C9.12544922,27.3871345 11.1774023,28.9584795 13.6324805,29.6152047 C14.452207,29.8345029 15.2842383,29.9426901 16.1109961,29.9426901 C17.7598242,29.9426901 19.3869727,29.5111111 20.8535742,28.6666667 L21.6639258,28.1994152 C22.3160742,27.8233918 22.7830664,27.2163743 22.9781836,26.4900585 C23.1727148,25.7637427 23.0731055,25.0052632 22.6963477,24.354386 L20.4100195,20.4017544 Z M4.32193359,2.5502924 C4.64068359,2.29766082 4.98169922,2.06549708 5.34439453,1.85614035 L6.15474609,1.38947368 C6.94224609,0.935672515 7.95240234,1.20584795 8.40650391,1.99122807 L10.7174414,5.98596491 C11.1721289,6.77192982 10.9014258,7.78011696 10.1139258,8.23391813 L8.23599609,9.31578947 L4.32193359,2.5502924 Z M21.8461523,26.1877193 C21.7318945,26.6116959 21.4594336,26.9666667 21.0779883,27.1865497 L20.2676367,27.6538012 C19.9066992,27.8614035 19.5346289,28.0409357 19.1543555,28.1912281 L15.2649023,21.4666667 L17.142832,20.3842105 C17.5242773,20.1643275 17.968418,20.1064327 18.3938086,20.219883 C18.8191992,20.3339181 19.1748633,20.605848 19.3945898,20.9865497 L21.6815039,24.9391813 C21.9012305,25.319883 21.9598242,25.7631579 21.8461523,26.1877193 L21.8461523,26.1877193 Z" id="Shape"></path>
                        <path d="M17.8301367,14.0766082 L19.5445898,14.0766082 L19.5445898,14.9695906 C19.5445898,15.2923977 19.8070898,15.554386 20.1305273,15.554386 C20.4545508,15.554386 20.7164648,15.2923977 20.7164648,14.9695906 L20.7164648,14.0766082 L20.7176367,14.0766082 C21.0410742,14.0766082 21.3035742,13.8146199 21.3035742,13.4918129 C21.3035742,13.1690058 21.0410742,12.9070175 20.7176367,12.9070175 L20.7164648,10.5754386 C20.7164648,10.1666667 20.4592383,9.80409357 20.0912695,9.69473684 C19.805332,9.60994152 19.4004492,9.67076023 19.120957,10.0976608 C18.8977148,10.4374269 17.4815039,12.9204678 17.320957,13.202924 C17.217832,13.3836257 17.2190039,13.605848 17.3238867,13.7859649 C17.4287695,13.9660819 17.621543,14.0766082 17.8301367,14.0766082 L17.8301367,14.0766082 Z M19.5445898,11.6812865 L19.5445898,12.9070175 L18.8391211,12.9070175 C19.0811133,12.4853801 19.3307227,12.0508772 19.5445898,11.6812865 Z" id="Shape"></path>
                        <path d="M12.8479102,11.8116959 C13.1654883,11.8736842 13.4736914,11.6672515 13.5358008,11.3502924 C13.589707,11.0754386 13.833457,10.8760234 14.115293,10.8760234 C14.4293555,10.8760234 14.687168,11.1222222 14.7047461,11.4315789 C14.6854102,11.5573099 14.6520117,11.674269 14.6045508,11.7807018 C14.5336523,11.9409357 14.4311133,12.1163743 14.2998633,12.3035088 C12.8566992,14.3614035 12.6727148,14.6216374 12.6656836,14.6315789 C12.5391211,14.8099415 12.5227148,15.0438596 12.6234961,15.2380117 C12.7236914,15.4321637 12.924668,15.554386 13.1438086,15.554386 L15.4863867,15.554386 C15.8104102,15.554386 16.0723242,15.2923977 16.0723242,14.9695906 C16.0723242,14.6467836 15.8104102,14.3847953 15.4863867,14.3847953 L14.2705664,14.3847953 C14.5066992,14.048538 14.8266211,13.5923977 15.2602148,12.974269 C15.4348242,12.725731 15.5748633,12.4830409 15.6762305,12.254386 C15.774082,12.0333333 15.840293,11.7929825 15.8731055,11.5391813 C15.8760352,11.5146199 15.877793,11.4900585 15.877793,11.4654971 C15.877793,10.4953216 15.0867773,9.70643275 14.115293,9.70643275 C13.2750586,9.70643275 12.5479102,10.302924 12.3861914,11.1251462 C12.3234961,11.4421053 12.530332,11.7491228 12.8479102,11.8116959 L12.8479102,11.8116959 Z" id="Path"></path>
                        <path d="M5.08130859,18.6274854 C4.92662109,18.6274854 4.77603516,18.6900585 4.66705078,18.7988304 C4.55806641,18.9076023 4.49537109,19.0578947 4.49537109,19.2122807 C4.49537109,19.3660819 4.55806641,19.5169591 4.66705078,19.625731 C4.77603516,19.7345029 4.92662109,19.797076 5.08130859,19.797076 C5.23541016,19.797076 5.38658203,19.7345029 5.49556641,19.625731 C5.60455078,19.5169591 5.66724609,19.3660819 5.66724609,19.2122807 C5.66724609,19.0578947 5.60455078,18.9076023 5.49556641,18.7988304 C5.38658203,18.6900585 5.23541016,18.6274854 5.08130859,18.6274854 Z" id="Path"></path>
                    </g>
                </g>
            </g>
        </g>
    </g>
</svg>