<?xml version="1.0" encoding="UTF-8"?>
<svg width="30px" height="30px" viewBox="0 0 30 30" version="1.1" xmlns="http://www.w3.org/2000/svg" xmlns:xlink="http://www.w3.org/1999/xlink">
    <title>ico11SVG</title>
    <defs>
        <filter id="filter-1">
            <feColorMatrix in="SourceGraphic" type="matrix" values="0 0 0 0 0.905882 0 0 0 0 0.019608 0 0 0 0 0.188235 0 0 0 1.000000 0"></feColorMatrix>
        </filter>
        <polygon id="path-2" points="0 0 29.9990625 0 29.9990625 29.99975 0 29.99975"></polygon>
        <polygon id="path-4" points="0 30 29.999375 30 29.999375 0 0 0"></polygon>
    </defs>
    <g id="Page-1" stroke="none" stroke-width="1" fill="none" fill-rule="evenodd">
        <g id="Desktop-HD" transform="translate(-503.000000, -2615.000000)">
            <g id="Group-38" transform="translate(113.000000, 2599.000000)">
                <g id="Group-15" transform="translate(390.000000, 16.000000)" filter="url(#filter-1)">
                    <g>
                        <path d="M6.63975,16.9701875 L7.726,13.9283125 L8.812875,16.9701875 L6.63975,16.9701875 Z M8.154125,12.4239375 C8.089125,12.2426875 7.9185,12.1214375 7.726,12.1214375 C7.534125,12.1214375 7.362875,12.2426875 7.2985,12.4239375 L4.267875,20.9083125 C4.182875,21.1445625 4.306625,21.4051875 4.5435,21.4889375 C4.77725,21.5720625 5.039125,21.4501875 5.1235,21.2139375 L6.31475,17.8789375 L9.13725,17.8789375 L10.3285,21.2139375 C10.39475,21.4001875 10.56975,21.5151875 10.756625,21.5151875 C10.80725,21.5151875 10.8585,21.5070625 10.909125,21.4889375 C11.146,21.4051875 11.2685,21.1445625 11.184125,20.9083125 L8.154125,12.4239375 Z" id="Fill-1" fill="#1A171B"></path>
                        <path d="M24.849,19.243125 C24.849,19.995 24.237125,20.606875 23.48525,20.606875 L19.69775,20.606875 L19.69775,17.273125 L22.273375,17.273125 L23.48525,17.273125 C24.237125,17.273125 24.849,17.884375 24.849,18.63625 L24.849,19.243125 Z M19.69775,13.03125 L22.273375,13.03125 C23.024625,13.03125 23.637125,13.6425 23.637125,14.394375 L23.637125,15.000625 C23.637125,15.7525 23.024625,16.364375 22.273375,16.364375 L19.69775,16.364375 L19.69775,13.03125 Z M24.0215,16.435 C24.344,16.0425 24.5465,15.546875 24.5465,15.000625 L24.5465,14.394375 C24.5465,13.14125 23.5265,12.12125 22.273375,12.12125 L19.24275,12.12125 C18.992125,12.12125 18.788375,12.325625 18.788375,12.576875 L18.788375,21.060625 C18.788375,21.3125 18.992125,21.515625 19.24275,21.515625 L23.48525,21.515625 C24.739,21.515625 25.75775,20.49625 25.75775,19.243125 L25.75775,18.63625 C25.75775,17.569375 25.01525,16.6775 24.0215,16.435 L24.0215,16.435 Z" id="Fill-3" fill="#1A171B"></path>
                        <g id="Group-7">
                            <mask id="mask-3" fill="white">
                                <use xlink:href="#path-2"></use>
                            </mask>
                            <g id="Clip-6"></g>
                            <path d="M29.0903125,23.030375 L0.9084375,23.030375 L0.9084375,2.272875 C0.9084375,1.521 1.5209375,0.909125 2.2721875,0.909125 L27.7259375,0.909125 C28.4784375,0.909125 29.0903125,1.521 29.0903125,2.272875 L29.0903125,23.030375 Z M29.0903125,24.69725 C29.0903125,25.449125 28.4784375,26.061 27.7259375,26.061 L2.2721875,26.061 C1.5209375,26.061 0.9084375,25.449125 0.9084375,24.69725 L0.9084375,23.939125 L29.0903125,23.939125 L29.0903125,24.69725 Z M9.6153125,29.091 L10.4590625,26.970375 L19.5396875,26.970375 L20.3834375,29.091 L9.6153125,29.091 Z M27.7259375,-0.00025 L2.2721875,-0.00025 C1.0196875,-0.00025 -0.0003125,1.01975 -0.0003125,2.272875 L-0.0003125,24.69725 C-0.0003125,25.951 1.0196875,26.970375 2.2721875,26.970375 L9.4803125,26.970375 L8.6365625,29.091 L5.9084375,29.091 C5.6578125,29.091 5.4540625,29.29475 5.4540625,29.546 C5.4540625,29.796625 5.6578125,29.99975 5.9084375,29.99975 L24.0903125,29.99975 C24.3409375,29.99975 24.5453125,29.796625 24.5453125,29.546 C24.5453125,29.29475 24.3409375,29.091 24.0903125,29.091 L21.3621875,29.091 L20.5178125,26.970375 L27.7259375,26.970375 C28.9790625,26.970375 29.9990625,25.951 29.9990625,24.69725 L29.9990625,2.272875 C29.9990625,1.01975 28.9790625,-0.00025 27.7259375,-0.00025 L27.7259375,-0.00025 Z" id="Fill-5" fill="#1A171B" mask="url(#mask-3)"></path>
                        </g>
                        <path d="M14.999125,2.4243125 C14.7485,2.4243125 14.54475,2.6280625 14.54475,2.8793125 L14.54475,21.0605625 C14.54475,21.3118125 14.7485,21.5149375 14.999125,21.5149375 C15.250375,21.5149375 15.454125,21.3118125 15.454125,21.0605625 L15.454125,2.8793125 C15.454125,2.6280625 15.250375,2.4243125 14.999125,2.4243125" id="Fill-8" fill="#1A171B"></path>
                        <path d="M25.3043125,7.9601875 C25.0530625,7.9601875 24.8486875,8.1639375 24.8486875,8.4145625 L24.8486875,9.0920625 L19.6974375,9.0920625 L19.6974375,3.9401875 L24.1849375,3.9401875 C24.4355625,3.9401875 24.6405625,3.7364375 24.6405625,3.4851875 C24.6405625,3.2345625 24.4355625,3.0308125 24.1849375,3.0308125 L19.2430625,3.0308125 C18.9918125,3.0308125 18.7880625,3.2345625 18.7880625,3.4851875 L18.7880625,9.5458125 C18.7880625,9.7970625 18.9918125,10.0008125 19.2430625,10.0008125 L25.3043125,10.0008125 C25.5543125,10.0008125 25.7580625,9.7970625 25.7580625,9.5458125 L25.7580625,8.4145625 C25.7580625,8.1639375 25.5543125,7.9601875 25.3043125,7.9601875" id="Fill-10" fill="#1A171B"></path>
                        <mask id="mask-5" fill="white">
                            <use xlink:href="#path-4"></use>
                        </mask>
                        <g id="Clip-13"></g>
                        <path d="M5.150625,9.091875 L10.301875,9.091875 L10.301875,3.940625 L5.150625,3.940625 L5.150625,9.091875 Z M10.756875,3.03125 L4.695625,3.03125 C4.445,3.03125 4.24125,3.235 4.24125,3.485 L4.24125,9.545625 C4.24125,9.7975 4.445,10.000625 4.695625,10.000625 L10.756875,10.000625 C11.0075,10.000625 11.210625,9.7975 11.210625,9.545625 L11.210625,3.485 C11.210625,3.235 11.0075,3.03125 10.756875,3.03125 L10.756875,3.03125 Z" id="Fill-12" fill="#1A171B" mask="url(#mask-5)"></path>
                        <path d="M27.019375,3.1640625 L22.796875,7.3865625 L21.10875,5.6984375 C20.93125,5.5203125 20.643125,5.5203125 20.465625,5.6984375 C20.288125,5.8753125 20.288125,6.1634375 20.465625,6.3403125 L22.475625,8.3509375 C22.564375,8.4390625 22.680625,8.4840625 22.796875,8.4840625 C22.91375,8.4840625 23.029375,8.4390625 23.11875,8.3509375 L27.661875,3.8065625 C27.839375,3.6290625 27.839375,3.3415625 27.661875,3.1640625 C27.484375,2.9865625 27.196875,2.9865625 27.019375,3.1640625" id="Fill-14" fill="#1A171B" mask="url(#mask-5)"></path>
                    </g>
                </g>
            </g>
        </g>
    </g>
</svg>