<?xml version="1.0" encoding="UTF-8"?>
<svg width="160px" height="156px" viewBox="0 0 160 156" version="1.1" xmlns="http://www.w3.org/2000/svg" xmlns:xlink="http://www.w3.org/1999/xlink">
    <title>ico16SVG</title>
    <defs>
        <filter id="filter-1">
            <feColorMatrix in="SourceGraphic" type="matrix" values="0 0 0 0 0.936623 0 0 0 0 0.936623 0 0 0 0 0.936623 0 0 0 1.000000 0"></feColorMatrix>
        </filter>
        <circle id="path-2" cx="52.5" cy="89" r="52.5"></circle>
        <filter x="-20.0%" y="-20.0%" width="140.0%" height="140.0%" filterUnits="objectBoundingBox" id="filter-3">
            <feOffset dx="0" dy="0" in="SourceAlpha" result="shadowOffsetOuter1"></feOffset>
            <feGaussianBlur stdDeviation="7" in="shadowOffsetOuter1" result="shadowBlurOuter1"></feGaussianBlur>
            <feColorMatrix values="0 0 0 0 0.175894475   0 0 0 0 0.175894475   0 0 0 0 0.175894475  0 0 0 0.2 0" type="matrix" in="shadowBlurOuter1"></feColorMatrix>
        </filter>
        <filter id="filter-4">
            <feColorMatrix in="SourceGraphic" type="matrix" values="0 0 0 0 0.035294 0 0 0 0 0.321569 0 0 0 0 0.815686 0 0 0 1.000000 0"></feColorMatrix>
        </filter>
    </defs>
    <g id="Page-1" stroke="none" stroke-width="1" fill="none" fill-rule="evenodd">
        <g id="Desktop-HD" transform="translate(-648.000000, -647.000000)">
            <g id="ico16" transform="translate(662.000000, 647.000000)">
                <g id="Group-62-Copy">
                    <g id="POINS" transform="translate(58.500000, 0.000000)" filter="url(#filter-1)">
                        <g>
                            <g id="Group-62" transform="translate(0.000000, 0.000000)" fill="#D8D8D8">
                                <circle id="Oval" cx="2" cy="2" r="2"></circle>
                                <circle id="Oval-Copy-5" cx="16" cy="2" r="2"></circle>
                                <circle id="Oval-Copy-6" cx="30" cy="2" r="2"></circle>
                                <circle id="Oval-Copy-7" cx="44" cy="2" r="2"></circle>
                                <circle id="Oval-Copy-9" cx="72" cy="2" r="2"></circle>
                                <circle id="Oval-Copy-11" cx="85" cy="2" r="2"></circle>
                                <circle id="Oval-Copy-10" cx="58" cy="2" r="2"></circle>
                            </g>
                            <g id="Group-62-Copy" transform="translate(0.000000, 13.000000)" fill="#D8D8D8">
                                <circle id="Oval" cx="2" cy="2" r="2"></circle>
                                <circle id="Oval-Copy-5" cx="16" cy="2" r="2"></circle>
                                <circle id="Oval-Copy-6" cx="30" cy="2" r="2"></circle>
                                <circle id="Oval-Copy-7" cx="44" cy="2" r="2"></circle>
                                <circle id="Oval-Copy-9" cx="72" cy="2" r="2"></circle>
                                <circle id="Oval-Copy-11" cx="85" cy="2" r="2"></circle>
                                <circle id="Oval-Copy-10" cx="58" cy="2" r="2"></circle>
                            </g>
                            <g id="Group-62-Copy-2" transform="translate(0.000000, 26.000000)" fill="#D8D8D8">
                                <circle id="Oval" cx="2" cy="2" r="2"></circle>
                                <circle id="Oval-Copy-5" cx="16" cy="2" r="2"></circle>
                                <circle id="Oval-Copy-6" cx="30" cy="2" r="2"></circle>
                                <circle id="Oval-Copy-7" cx="44" cy="2" r="2"></circle>
                                <circle id="Oval-Copy-9" cx="72" cy="2" r="2"></circle>
                                <circle id="Oval-Copy-11" cx="85" cy="2" r="2"></circle>
                                <circle id="Oval-Copy-10" cx="58" cy="2" r="2"></circle>
                            </g>
                            <g id="Group-62-Copy-3" transform="translate(0.000000, 39.000000)" fill="#D8D8D8">
                                <circle id="Oval" cx="2" cy="2" r="2"></circle>
                                <circle id="Oval-Copy-5" cx="16" cy="2" r="2"></circle>
                                <circle id="Oval-Copy-6" cx="30" cy="2" r="2"></circle>
                                <circle id="Oval-Copy-7" cx="44" cy="2" r="2"></circle>
                                <circle id="Oval-Copy-9" cx="72" cy="2" r="2"></circle>
                                <circle id="Oval-Copy-11" cx="85" cy="2" r="2"></circle>
                                <circle id="Oval-Copy-10" cx="58" cy="2" r="2"></circle>
                            </g>
                            <g id="Group-62-Copy-4" transform="translate(0.000000, 52.000000)" fill="#D8D8D8">
                                <circle id="Oval" cx="2" cy="2" r="2"></circle>
                                <circle id="Oval-Copy-5" cx="16" cy="2" r="2"></circle>
                                <circle id="Oval-Copy-6" cx="30" cy="2" r="2"></circle>
                                <circle id="Oval-Copy-7" cx="44" cy="2" r="2"></circle>
                                <circle id="Oval-Copy-9" cx="72" cy="2" r="2"></circle>
                                <circle id="Oval-Copy-11" cx="85" cy="2" r="2"></circle>
                                <circle id="Oval-Copy-10" cx="58" cy="2" r="2"></circle>
                            </g>
                            <g id="Group-62-Copy-5" transform="translate(0.000000, 65.000000)" fill="#D8D8D8">
                                <circle id="Oval" cx="2" cy="2" r="2"></circle>
                                <circle id="Oval-Copy-5" cx="16" cy="2" r="2"></circle>
                                <circle id="Oval-Copy-6" cx="30" cy="2" r="2"></circle>
                                <circle id="Oval-Copy-7" cx="44" cy="2" r="2"></circle>
                                <circle id="Oval-Copy-9" cx="72" cy="2" r="2"></circle>
                                <circle id="Oval-Copy-11" cx="85" cy="2" r="2"></circle>
                                <circle id="Oval-Copy-10" cx="58" cy="2" r="2"></circle>
                            </g>
                            <g id="Group-62-Copy-6" transform="translate(0.000000, 78.000000)" fill="#D8D8D8">
                                <circle id="Oval" cx="2" cy="2" r="2"></circle>
                                <circle id="Oval-Copy-5" cx="16" cy="2" r="2"></circle>
                                <circle id="Oval-Copy-6" cx="30" cy="2" r="2"></circle>
                                <circle id="Oval-Copy-7" cx="44" cy="2" r="2"></circle>
                                <circle id="Oval-Copy-9" cx="72" cy="2" r="2"></circle>
                                <circle id="Oval-Copy-11" cx="85" cy="2" r="2"></circle>
                                <circle id="Oval-Copy-10" cx="58" cy="2" r="2"></circle>
                            </g>
                            <g id="Group-62-Copy-7" transform="translate(0.000000, 91.000000)" fill="#D8D8D8">
                                <circle id="Oval" cx="2" cy="2" r="2"></circle>
                                <circle id="Oval-Copy-5" cx="16" cy="2" r="2"></circle>
                                <circle id="Oval-Copy-6" cx="30" cy="2" r="2"></circle>
                                <circle id="Oval-Copy-7" cx="44" cy="2" r="2"></circle>
                                <circle id="Oval-Copy-9" cx="72" cy="2" r="2"></circle>
                                <circle id="Oval-Copy-11" cx="85" cy="2" r="2"></circle>
                                <circle id="Oval-Copy-10" cx="58" cy="2" r="2"></circle>
                            </g>
                            <g id="Group-62-Copy-8" transform="translate(0.000000, 104.000000)" fill="#D8D8D8">
                                <circle id="Oval" cx="2" cy="2" r="2"></circle>
                                <circle id="Oval-Copy-5" cx="16" cy="2" r="2"></circle>
                                <circle id="Oval-Copy-6" cx="30" cy="2" r="2"></circle>
                                <circle id="Oval-Copy-7" cx="44" cy="2" r="2"></circle>
                                <circle id="Oval-Copy-9" cx="72" cy="2" r="2"></circle>
                                <circle id="Oval-Copy-11" cx="85" cy="2" r="2"></circle>
                                <circle id="Oval-Copy-10" cx="58" cy="2" r="2"></circle>
                            </g>
                            <g id="Group-62-Copy-9" transform="translate(0.000000, 117.000000)" fill="#D8D8D8">
                                <circle id="Oval" cx="2" cy="2" r="2"></circle>
                                <circle id="Oval-Copy-5" cx="16" cy="2" r="2"></circle>
                                <circle id="Oval-Copy-6" cx="30" cy="2" r="2"></circle>
                                <circle id="Oval-Copy-7" cx="44" cy="2" r="2"></circle>
                                <circle id="Oval-Copy-9" cx="72" cy="2" r="2"></circle>
                                <circle id="Oval-Copy-11" cx="85" cy="2" r="2"></circle>
                                <circle id="Oval-Copy-10" cx="58" cy="2" r="2"></circle>
                            </g>
                        </g>
                    </g>
                    <g id="Oval">
                        <use fill="black" fill-opacity="1" filter="url(#filter-3)" xlink:href="#path-2"></use>
                        <use fill="#E7FBFF" fill-rule="evenodd" xlink:href="#path-2"></use>
                    </g>
                </g>
                <g id="001-telefono-inteligente" transform="translate(37.700882, 64.000000)" filter="url(#filter-4)">
                    <g>
                        <path d="M28.0677221,32.5435875 C27.695803,32.5435875 27.3944436,32.8450367 27.3944436,33.2168659 L27.3944436,41.3501594 C27.3944436,43.1716021 25.9125128,44.6534431 24.0910702,44.6534431 L4.64993033,44.6534431 C2.82839791,44.6534431 1.34655691,43.1716021 1.34655691,41.3501594 L1.34655691,4.64993033 C1.34655691,2.82839791 2.82848768,1.34655691 4.64993033,1.34655691 L24.0909804,1.34655691 C25.9124231,1.34655691 27.3943538,2.82839791 27.3943538,4.64993033 L27.3943538,9.03378101 C27.3943538,9.40561026 27.6957133,9.70705947 28.0676323,9.70705947 C28.4395513,9.70705947 28.7409108,9.40561026 28.7409108,9.03378101 L28.7409108,4.64993033 C28.7409108,2.08590643 26.6550043,5.10285991e-15 24.0910702,5.10285991e-15 L4.64993033,5.10285991e-15 C2.0859962,5.10285991e-15 7.65428986e-15,2.08590643 7.65428986e-15,4.64993033 L7.65428986e-15,41.3501594 C7.65428986e-15,43.9140936 2.08590643,46 4.64993033,46 L24.0909804,46 C26.6550043,46 28.7409108,43.9140936 28.7409108,41.3501594 L28.7409108,33.2168659 C28.7409108,32.8450367 28.4395513,32.5435875 28.0677221,32.5435875 L28.0677221,32.5435875 Z" id="Path" fill="#000000" fill-rule="nonzero"></path>
                        <path d="M25.3746082,9.68425777 C25.7465272,9.68425777 26.0478867,9.38280857 26.0478867,9.01097932 L26.0478867,4.64993033 C26.0478867,3.57088939 25.1701111,2.69311383 24.0910702,2.69311383 L21.8783181,2.69311383 C21.4788395,2.69311383 21.1192191,2.94563813 20.9833964,3.32177636 L20.8745946,3.62349488 C20.7188428,4.05564988 20.3054498,4.34605732 19.8460944,4.34605732 L13.7098345,4.34605732 C13.3380053,4.34605732 13.0365561,4.64750653 13.0365561,5.01933578 C13.0365561,5.39116503 13.3380053,5.69261423 13.7098345,5.69261423 L19.8460944,5.69261423 C20.8712731,5.69261423 21.7936645,5.04465105 22.1413455,4.08015722 L22.1559781,4.03967074 L24.0910702,4.03967074 C24.4275299,4.03967074 24.7013298,4.31338087 24.7013298,4.64993033 L24.7013298,9.01106909 C24.7013298,9.38289834 25.0026892,9.68425777 25.3746082,9.68425777 L25.3746082,9.68425777 Z" id="Path" fill="#000000" fill-rule="nonzero"></path>
                        <path d="M26.6308561,10.9564847 C24.8104907,10.9564847 23.0684051,11.5159343 21.5932969,12.574328 C21.2912193,12.7911237 21.2219165,13.211788 21.4387121,13.5138656 C21.6555976,13.8161228 22.0763517,13.8851563 22.3782498,13.6684504 C23.6231865,12.7752343 25.0937165,12.3031314 26.6308561,12.3031314 C30.6581385,12.3031314 33.9346705,15.5796635 33.9346705,19.6069459 C33.9346705,22.3611036 30.1723007,26.8647979 26.651234,30.1611692 C26.6393843,30.1723007 26.6221483,30.172211 26.6104782,30.1611692 C23.0894114,26.8648877 19.3270416,22.3613729 19.3270416,19.6069459 C19.3270416,18.1584097 19.7503991,16.7585292 20.5512414,15.5583879 C20.7577134,15.2491286 20.6742269,14.8310676 20.3649677,14.6246853 C20.0557982,14.4182133 19.6375576,14.5016998 19.4312651,14.810959 C18.4822118,16.2330129 17.9805745,17.8914324 17.9805745,19.6069459 C17.9805745,21.363305 19.0731707,23.6314454 21.2281106,26.3482586 C22.885812,28.4383843 24.735263,30.2501317 25.6902412,31.144066 C25.9539868,31.3910245 26.2924214,31.5145487 26.6309458,31.5145487 C26.9693805,31.5145487 27.3079049,31.3910245 27.5716505,31.1441557 C28.5266287,30.250042 30.3762592,28.438115 32.033781,26.3482586 C34.1887209,23.6313557 35.2813172,21.3632152 35.2813172,19.6069459 C35.2813172,14.8370822 31.4007197,10.9564847 26.6308561,10.9564847 L26.6308561,10.9564847 Z" id="Path" fill="#000000" fill-rule="nonzero"></path>
                        <path d="M31.466701,19.6069459 C31.466701,16.9404939 29.2973081,14.7711009 26.6308561,14.7711009 C23.9644041,14.7711009 21.7951009,16.9404939 21.7951009,19.6069459 C21.7951009,22.2733979 23.9644041,24.4427011 26.6308561,24.4427011 C29.2973081,24.4427011 31.466701,22.2733979 31.466701,19.6069459 L31.466701,19.6069459 Z M23.1416578,19.6069459 C23.1416578,17.6829854 24.7069853,16.1176578 26.6308561,16.1176578 C28.5549063,16.1176578 30.1201441,17.6829854 30.1201441,19.6069459 C30.1201441,21.5309064 28.5548166,23.0961442 26.6308561,23.0961442 C24.7068955,23.0961442 23.1416578,21.5309064 23.1416578,19.6069459 L23.1416578,19.6069459 Z" id="Shape" fill="#000000" fill-rule="nonzero"></path>
                        <path d="M19.0131143,25.6388925 C18.7542163,25.3720049 18.3280759,25.3655414 18.0610986,25.6245292 L13.2929405,30.2508499 C13.1426648,30.3966371 13.0583703,30.6004161 13.0618714,30.8097608 C13.0653724,31.0191953 13.1562201,31.219922 13.3110742,31.3605026 L24.6266408,41.6423623 C24.5228661,41.8316882 24.3217803,41.960419 24.0910702,41.960419 L21.6393491,41.960419 L11.6264417,32.8621828 C11.3297503,32.5923328 10.871921,32.5997838 10.584476,32.8790597 L4.03985028,39.229063 L4.03985028,36.1019988 L9.08324454,31.2086109 C9.35013212,30.9497129 9.35650582,30.523393 9.09760781,30.2565952 C8.83862003,29.9897076 8.41247966,29.9832441 8.14559208,30.2422319 L4.03985028,34.2257961 L4.03985028,4.64993033 C4.03985028,4.31338087 4.31356041,4.03967074 4.65010987,4.03967074 L6.67497239,4.03967074 L6.68960497,4.08024699 C7.03728597,5.04474082 7.95967745,5.692704 8.98485611,5.692704 L10.8406809,5.692704 C11.2125101,5.692704 11.5139593,5.3912548 11.5139593,5.01942555 C11.5139593,4.6475963 11.2125101,4.34614709 10.8406809,4.34614709 L8.98485611,4.34614709 C8.5254109,4.34614709 8.11210769,4.05582942 7.95626617,3.62358465 L7.84755415,3.3219559 C7.71209052,2.94590744 7.35238028,2.6932036 6.95263242,2.6932036 L4.65010987,2.6932036 C3.57106893,2.6932036 2.69329337,3.57097916 2.69329337,4.6500201 L2.69329337,41.3502492 C2.69329337,42.4292901 3.57106893,43.3070657 4.65010987,43.3070657 L24.09116,43.3070657 C25.1702009,43.3070657 26.0479765,42.4292901 26.0479765,41.3502492 L26.0479765,33.2956844 C26.0479765,32.9238551 25.746617,32.6224059 25.374698,32.6224059 C25.002779,32.6224059 24.7014195,32.9238551 24.7014195,33.2956844 L24.7014195,39.8909406 L14.678009,30.7831887 L18.998751,26.590998 C19.2656386,26.3321 19.2721021,25.90578 19.0131143,25.6388925 L19.0131143,25.6388925 Z M4.03967074,41.3501594 L4.03967074,41.1052656 L11.1274077,34.2283097 L19.6369292,41.960419 L4.64993033,41.960419 C4.31347064,41.9603293 4.03967074,41.6866191 4.03967074,41.3501594 Z" id="Shape" fill="#000000" fill-rule="nonzero"></path>
                        <path d="M16.2300505,22.3979095 L10.2049264,28.2438517 C9.93803887,28.5027497 9.93166516,28.9290696 10.1905632,29.1958674 C10.3226155,29.3319595 10.4981168,29.4002748 10.6737976,29.4002748 C10.8426558,29.4002748 11.0117833,29.3370764 11.1425789,29.2102307 L17.1677029,23.3642885 C17.4345905,23.1053905 17.441054,22.6790706 17.1820662,22.4122728 C16.923258,22.145475 16.4970278,22.1389217 16.2300505,22.3979095 L16.2300505,22.3979095 Z" id="Path" fill="#000000" fill-rule="nonzero"></path>
                        <path d="M10.0326569,20.7499932 C10.4044862,20.7499932 10.7059354,20.448544 10.7059354,20.0767147 L10.7059354,16.8347443 C11.9900121,16.5298838 12.9484015,15.3742687 12.9484015,13.998267 C12.9484015,12.3904781 11.6404459,11.0825225 10.0326569,11.0825225 C8.42486798,11.0825225 7.11691236,12.3904781 7.11691236,13.998267 C7.11691236,15.3742687 8.0753018,16.5298838 9.35937848,16.8347443 L9.35937848,20.0767147 C9.35937848,20.448544 9.66082768,20.7499932 10.0326569,20.7499932 Z M8.46346928,13.998267 C8.46346928,13.1329696 9.16744923,12.4290794 10.0326569,12.4290794 C10.8978646,12.4290794 11.6018446,13.1329696 11.6018446,13.998267 C11.6018446,14.8635645 10.8979544,15.5674547 10.0326569,15.5674547 C9.16735946,15.5674547 8.46346928,14.8635645 8.46346928,13.998267 Z" id="Shape" fill="#000000" fill-rule="nonzero"></path>
                    </g>
                </g>
            </g>
        </g>
    </g>
</svg>