<?xml version="1.0" encoding="UTF-8"?>
<svg width="160px" height="156px" viewBox="0 0 160 156" version="1.1" xmlns="http://www.w3.org/2000/svg" xmlns:xlink="http://www.w3.org/1999/xlink">
    <title>ico15SVG</title>
    <defs>
        <filter id="filter-1">
            <feColorMatrix in="SourceGraphic" type="matrix" values="0 0 0 0 0.936623 0 0 0 0 0.936623 0 0 0 0 0.936623 0 0 0 1.000000 0"></feColorMatrix>
        </filter>
        <circle id="path-2" cx="52.5" cy="89" r="52.5"></circle>
        <filter x="-20.0%" y="-20.0%" width="140.0%" height="140.0%" filterUnits="objectBoundingBox" id="filter-3">
            <feOffset dx="0" dy="0" in="SourceAlpha" result="shadowOffsetOuter1"></feOffset>
            <feGaussianBlur stdDeviation="7" in="shadowOffsetOuter1" result="shadowBlurOuter1"></feGaussianBlur>
            <feColorMatrix values="0 0 0 0 0.175894475   0 0 0 0 0.175894475   0 0 0 0 0.175894475  0 0 0 0.2 0" type="matrix" in="shadowBlurOuter1"></feColorMatrix>
        </filter>
        <filter id="filter-4">
            <feColorMatrix in="SourceGraphic" type="matrix" values="0 0 0 0 0.905882 0 0 0 0 0.019608 0 0 0 0 0.188235 0 0 0 1.000000 0"></feColorMatrix>
        </filter>
    </defs>
    <g id="Page-1" stroke="none" stroke-width="1" fill="none" fill-rule="evenodd">
        <g id="Desktop-HD" transform="translate(-287.000000, -647.000000)">
            <g id="Group-32" transform="translate(301.000000, 647.000000)">
                <g id="POINS" transform="translate(58.500000, 0.000000)" filter="url(#filter-1)">
                    <g>
                        <g id="Group-62" transform="translate(0.000000, 0.000000)" fill="#D8D8D8">
                            <circle id="Oval" cx="2" cy="2" r="2"></circle>
                            <circle id="Oval-Copy-5" cx="16" cy="2" r="2"></circle>
                            <circle id="Oval-Copy-6" cx="30" cy="2" r="2"></circle>
                            <circle id="Oval-Copy-7" cx="44" cy="2" r="2"></circle>
                            <circle id="Oval-Copy-9" cx="72" cy="2" r="2"></circle>
                            <circle id="Oval-Copy-11" cx="85" cy="2" r="2"></circle>
                            <circle id="Oval-Copy-10" cx="58" cy="2" r="2"></circle>
                        </g>
                        <g id="Group-62-Copy" transform="translate(0.000000, 13.000000)" fill="#D8D8D8">
                            <circle id="Oval" cx="2" cy="2" r="2"></circle>
                            <circle id="Oval-Copy-5" cx="16" cy="2" r="2"></circle>
                            <circle id="Oval-Copy-6" cx="30" cy="2" r="2"></circle>
                            <circle id="Oval-Copy-7" cx="44" cy="2" r="2"></circle>
                            <circle id="Oval-Copy-9" cx="72" cy="2" r="2"></circle>
                            <circle id="Oval-Copy-11" cx="85" cy="2" r="2"></circle>
                            <circle id="Oval-Copy-10" cx="58" cy="2" r="2"></circle>
                        </g>
                        <g id="Group-62-Copy-2" transform="translate(0.000000, 26.000000)" fill="#D8D8D8">
                            <circle id="Oval" cx="2" cy="2" r="2"></circle>
                            <circle id="Oval-Copy-5" cx="16" cy="2" r="2"></circle>
                            <circle id="Oval-Copy-6" cx="30" cy="2" r="2"></circle>
                            <circle id="Oval-Copy-7" cx="44" cy="2" r="2"></circle>
                            <circle id="Oval-Copy-9" cx="72" cy="2" r="2"></circle>
                            <circle id="Oval-Copy-11" cx="85" cy="2" r="2"></circle>
                            <circle id="Oval-Copy-10" cx="58" cy="2" r="2"></circle>
                        </g>
                        <g id="Group-62-Copy-3" transform="translate(0.000000, 39.000000)" fill="#D8D8D8">
                            <circle id="Oval" cx="2" cy="2" r="2"></circle>
                            <circle id="Oval-Copy-5" cx="16" cy="2" r="2"></circle>
                            <circle id="Oval-Copy-6" cx="30" cy="2" r="2"></circle>
                            <circle id="Oval-Copy-7" cx="44" cy="2" r="2"></circle>
                            <circle id="Oval-Copy-9" cx="72" cy="2" r="2"></circle>
                            <circle id="Oval-Copy-11" cx="85" cy="2" r="2"></circle>
                            <circle id="Oval-Copy-10" cx="58" cy="2" r="2"></circle>
                        </g>
                        <g id="Group-62-Copy-4" transform="translate(0.000000, 52.000000)" fill="#D8D8D8">
                            <circle id="Oval" cx="2" cy="2" r="2"></circle>
                            <circle id="Oval-Copy-5" cx="16" cy="2" r="2"></circle>
                            <circle id="Oval-Copy-6" cx="30" cy="2" r="2"></circle>
                            <circle id="Oval-Copy-7" cx="44" cy="2" r="2"></circle>
                            <circle id="Oval-Copy-9" cx="72" cy="2" r="2"></circle>
                            <circle id="Oval-Copy-11" cx="85" cy="2" r="2"></circle>
                            <circle id="Oval-Copy-10" cx="58" cy="2" r="2"></circle>
                        </g>
                        <g id="Group-62-Copy-5" transform="translate(0.000000, 65.000000)" fill="#D8D8D8">
                            <circle id="Oval" cx="2" cy="2" r="2"></circle>
                            <circle id="Oval-Copy-5" cx="16" cy="2" r="2"></circle>
                            <circle id="Oval-Copy-6" cx="30" cy="2" r="2"></circle>
                            <circle id="Oval-Copy-7" cx="44" cy="2" r="2"></circle>
                            <circle id="Oval-Copy-9" cx="72" cy="2" r="2"></circle>
                            <circle id="Oval-Copy-11" cx="85" cy="2" r="2"></circle>
                            <circle id="Oval-Copy-10" cx="58" cy="2" r="2"></circle>
                        </g>
                        <g id="Group-62-Copy-6" transform="translate(0.000000, 78.000000)" fill="#D8D8D8">
                            <circle id="Oval" cx="2" cy="2" r="2"></circle>
                            <circle id="Oval-Copy-5" cx="16" cy="2" r="2"></circle>
                            <circle id="Oval-Copy-6" cx="30" cy="2" r="2"></circle>
                            <circle id="Oval-Copy-7" cx="44" cy="2" r="2"></circle>
                            <circle id="Oval-Copy-9" cx="72" cy="2" r="2"></circle>
                            <circle id="Oval-Copy-11" cx="85" cy="2" r="2"></circle>
                            <circle id="Oval-Copy-10" cx="58" cy="2" r="2"></circle>
                        </g>
                        <g id="Group-62-Copy-7" transform="translate(0.000000, 91.000000)" fill="#D8D8D8">
                            <circle id="Oval" cx="2" cy="2" r="2"></circle>
                            <circle id="Oval-Copy-5" cx="16" cy="2" r="2"></circle>
                            <circle id="Oval-Copy-6" cx="30" cy="2" r="2"></circle>
                            <circle id="Oval-Copy-7" cx="44" cy="2" r="2"></circle>
                            <circle id="Oval-Copy-9" cx="72" cy="2" r="2"></circle>
                            <circle id="Oval-Copy-11" cx="85" cy="2" r="2"></circle>
                            <circle id="Oval-Copy-10" cx="58" cy="2" r="2"></circle>
                        </g>
                        <g id="Group-62-Copy-8" transform="translate(0.000000, 104.000000)" fill="#D8D8D8">
                            <circle id="Oval" cx="2" cy="2" r="2"></circle>
                            <circle id="Oval-Copy-5" cx="16" cy="2" r="2"></circle>
                            <circle id="Oval-Copy-6" cx="30" cy="2" r="2"></circle>
                            <circle id="Oval-Copy-7" cx="44" cy="2" r="2"></circle>
                            <circle id="Oval-Copy-9" cx="72" cy="2" r="2"></circle>
                            <circle id="Oval-Copy-11" cx="85" cy="2" r="2"></circle>
                            <circle id="Oval-Copy-10" cx="58" cy="2" r="2"></circle>
                        </g>
                        <g id="Group-62-Copy-9" transform="translate(0.000000, 117.000000)" fill="#D8D8D8">
                            <circle id="Oval" cx="2" cy="2" r="2"></circle>
                            <circle id="Oval-Copy-5" cx="16" cy="2" r="2"></circle>
                            <circle id="Oval-Copy-6" cx="30" cy="2" r="2"></circle>
                            <circle id="Oval-Copy-7" cx="44" cy="2" r="2"></circle>
                            <circle id="Oval-Copy-9" cx="72" cy="2" r="2"></circle>
                            <circle id="Oval-Copy-11" cx="85" cy="2" r="2"></circle>
                            <circle id="Oval-Copy-10" cx="58" cy="2" r="2"></circle>
                        </g>
                    </g>
                </g>
                <g id="Oval">
                    <use fill="black" fill-opacity="1" filter="url(#filter-3)" xlink:href="#path-2"></use>
                    <use fill="#FDD8DF" fill-rule="evenodd" xlink:href="#path-2"></use>
                </g>
                <g id="002-mapa" transform="translate(24.000000, 60.272000)" filter="url(#filter-4)">
                    <g>
                        <path d="M55.949508,49.0320402 L52.6708392,30.9540569 C52.5899573,30.5076761 52.1624854,30.2113641 51.7161047,30.2923553 C51.2697239,30.3732373 50.9736305,30.8008184 51.0545124,31.2470899 L52.4407629,38.8907591 L41.7532011,26.4764776 L48.9414177,24.8721738 L50.00578,25.4646885 L50.4678999,28.0131247 C50.5487818,28.4595055 50.9762537,28.7555989 51.4226345,28.6748263 C51.8690152,28.5939443 52.1651086,28.1663632 52.084336,27.7200917 L51.5527013,24.7893245 C51.5088721,24.5473345 51.3589126,24.3378066 51.1441383,24.2182325 L49.4671501,23.2847022 C49.4671501,23.2847022 49.4671501,23.2847022 49.4670408,23.2847022 L44.1673077,20.3345888 L44.1671984,20.3345888 L40.0780709,18.0583093 C40.0779616,18.0583093 40.0778523,18.0582 40.0778523,18.0582 C40.0775244,18.0580907 40.0773058,18.0578721 40.0769779,18.0576535 C40.0453903,18.0401655 40.0130375,18.0250821 39.9799196,18.0120755 C39.9695361,18.0080314 39.9589341,18.0052989 39.948332,18.001692 C39.9252697,17.9936038 39.9020981,17.9858435 39.8785986,17.979832 C39.865264,17.9764437 39.8518202,17.9744763 39.838267,17.9718531 C39.8171721,17.9676997 39.7959679,17.9635463 39.7746544,17.9610324 C39.7602269,17.9592836 39.7459086,17.9587371 39.7313717,17.9578627 C39.710714,17.9565511 39.6900563,17.9554581 39.6693986,17.9556767 C39.6546432,17.955786 39.639997,17.956879 39.6252415,17.9577534 C39.6049117,17.959065 39.5845819,17.9609231 39.5642521,17.9637649 C39.5494967,17.9658416 39.5347412,17.9684648 39.520095,17.9714159 C39.5002024,17.9753507 39.4805284,17.9799413 39.4608545,17.985297 C39.446099,17.9893411 39.4314528,17.9937131 39.4169159,17.9985223 C39.3978977,18.004971 39.3790981,18.0122941 39.3604079,18.0201636 C39.3459803,18.0262844 39.331662,18.0322959 39.3173437,18.0392911 C39.3111136,18.0423515 39.3046649,18.0444282 39.2985441,18.0475979 L37.4220836,19.0257226 C38.8180618,16.4227457 39.5232647,13.9017438 39.5232647,11.4899324 C39.5232647,5.15436424 34.3689005,2.79584076e-14 28.0333323,2.79584076e-14 C21.6977642,2.79584076e-14 16.5440557,5.15436424 16.5440557,11.4899324 C16.5440557,13.9251339 17.2623746,16.4717121 18.6856778,19.1015768 L16.6637391,18.0475979 C16.657509,18.0443189 16.6508417,18.0421329 16.6445023,18.0390725 C16.6307305,18.0322959 16.6165215,18.0263937 16.6025312,18.0204915 C16.5836223,18.0125127 16.5644948,18.0050803 16.5451487,17.9985223 C16.5308304,17.9937131 16.5162935,17.9894504 16.5017567,17.9854063 C16.4820827,17.9800506 16.4622994,17.9753507 16.4424068,17.9714159 C16.4276513,17.9684648 16.4127865,17.9658416 16.3979218,17.9637649 C16.3779199,17.9609231 16.3578087,17.9591743 16.3376975,17.9578627 C16.3226141,17.956879 16.3075308,17.9558953 16.2925567,17.9556767 C16.2724455,17.9554581 16.2524436,17.9565511 16.2323324,17.9577534 C16.217249,17.9587371 16.2021657,17.9592836 16.1870823,17.9611417 C16.1666432,17.9635463 16.1464227,17.9675904 16.1262022,17.9715252 C16.1118839,17.974367 16.0974564,17.9764437 16.0832474,17.9800506 C16.0608409,17.9857342 16.0388716,17.9932759 16.0169023,18.0008176 C16.0054259,18.0047524 15.9937308,18.0078128 15.9822543,18.0122941 C15.9492457,18.0253007 15.9170022,18.0403841 15.8855239,18.0577628 C15.885196,18.0578721 15.8849774,18.0580907 15.8846495,18.0583093 C15.8845402,18.0583093 15.8845402,18.0584186 15.8844309,18.0584186 L4.81858206,24.2182325 C4.60369848,24.3378066 4.45373903,24.5473345 4.41001907,24.7893245 L1.2931141,41.9750927 C1.21223218,42.4213642 1.50843488,42.8489454 1.95481563,42.9298273 C2.40130569,43.0110371 2.82866826,42.7145065 2.90955018,42.2681257 L3.84461074,37.1123406 L14.4752274,31.492796 L13.6202836,42.5314292 L1.90803528,47.7903934 L2.32020517,45.5169557 C2.40108709,45.0706842 2.10499368,44.6432124 1.65861293,44.5622211 C1.21256008,44.4815578 0.784869606,44.7775419 0.703878387,45.2239227 L0.0132123795,49.0321495 C-0.0412189659,49.3320684 0.0750761175,49.6375616 0.315098677,49.8254481 C0.46232563,49.9406502 0.64103095,50 0.82137577,50 C0.935375556,50 1.05003114,49.9762819 1.15769153,49.9279714 L14.4013407,43.9815108 L27.6394155,49.9254575 C27.6397434,49.9255668 27.6400713,49.9257854 27.6403992,49.9258947 L27.6448805,49.9278621 C27.6523129,49.9312504 27.6600732,49.9335457 27.6677242,49.9367154 C27.6798565,49.9417432 27.692098,49.9464431 27.7045582,49.9509243 C27.7164719,49.955187 27.7284949,49.9594497 27.7407365,49.9631659 C27.7486061,49.9655705 27.7564757,49.9676472 27.7643453,49.9698332 C27.7746195,49.972675 27.7847844,49.9754075 27.7952771,49.9778121 C27.8123279,49.9817469 27.8295973,49.9848073 27.8467574,49.9876491 C27.8549549,49.9889607 27.8630431,49.9909281 27.8713499,49.9920211 C27.8769242,49.9927862 27.8824985,49.9935513 27.8880727,49.9942071 C27.915507,49.9973768 27.9432692,49.9990163 27.9708128,49.9993442 C27.9743104,49.9993442 27.977808,50 27.9813056,50 C27.9830544,50 27.9848032,50 27.986552,50 C28.0197791,49.9994535 28.0527877,49.996721 28.0859056,49.9924583 C28.0899496,49.9919118 28.094103,49.9921304 28.0982564,49.9914746 C28.1044865,49.9906002 28.1106073,49.9885235 28.1169467,49.9875398 C28.1426322,49.9832771 28.1683177,49.9777028 28.1936752,49.9708169 C28.2006704,49.9689588 28.2077749,49.9678658 28.2147701,49.9658984 C28.2155352,49.9656798 28.216191,49.9656798 28.2169561,49.9654612 C28.2192514,49.9648054 28.2213281,49.9636031 28.2236234,49.962838 C28.255539,49.953001 28.286908,49.9417432 28.3178399,49.9278621 L41.5610518,43.9814015 L54.8045917,49.9277528 C54.8173798,49.9334364 54.8304958,49.9376991 54.8436117,49.9427269 C54.8565091,49.9477547 54.8691879,49.9533289 54.8824132,49.9577009 C54.8995733,49.9633845 54.9171706,49.9676472 54.9346585,49.9721285 C54.9454792,49.9749703 54.955972,49.9784679 54.9670113,49.9807632 C54.9881062,49.9853538 55.0094197,49.9883049 55.0307332,49.991256 C55.0383841,49.9922397 55.0458165,49.9939885 55.0534675,49.9948629 C55.0826506,49.9980326 55.1118337,50 55.1410167,50 L55.141126,50 C55.1412353,50 55.1413446,50 55.1413446,50 C55.1812391,50 55.2211336,49.995628 55.2609187,49.9898351 C55.2700999,49.9885235 55.2792811,49.9871026 55.2884623,49.9853538 C55.327701,49.9782493 55.3666117,49.9690681 55.4050853,49.9559521 C55.4074899,49.9550777 55.4098945,49.9538754 55.4122991,49.9531103 C55.4376566,49.9442571 55.4629049,49.9345294 55.4876067,49.9228343 C55.4948205,49.919446 55.5010506,49.9146368 55.5081551,49.9110299 C55.5288128,49.9006464 55.5487053,49.8887327 55.5685979,49.8763818 C55.5884905,49.8642495 55.6082738,49.8520079 55.6269641,49.8381269 C55.6334127,49.8333177 55.6406265,49.8299294 55.6470752,49.8250109 C55.6615028,49.813753 55.6740723,49.8007463 55.6876255,49.7885047 C55.6984462,49.778777 55.7097041,49.7695958 55.7200876,49.7594309 C55.7450079,49.7348385 55.7677423,49.7086065 55.7888372,49.6813908 C55.792772,49.6762537 55.7974719,49.6717724 55.8014067,49.666526 C55.8258899,49.6332989 55.8475312,49.5984322 55.8666587,49.5621446 C55.8720144,49.5519797 55.8760585,49.5411591 55.8810863,49.5306663 C55.8937651,49.5039971 55.9054602,49.4771093 55.9152972,49.4492379 C55.9202157,49.4352475 55.9241505,49.4210385 55.9283039,49.4066109 C55.9357362,49.3810347 55.9419663,49.3551306 55.9468848,49.3287894 C55.9497266,49.313706 55.9523498,49.2985133 55.9543172,49.2832113 C55.9579241,49.2553398 55.9595636,49.2270312 55.9603287,49.1987225 C55.9606566,49.1852786 55.9614824,49.171944 55.9614824,49.1582815 C55.9607659,49.116529 55.9572683,49.0742299 55.949508,49.0320402 Z M41.5117576,20.7363752 L40.6697112,20.9333336 L40.6158264,20.2376398 L41.5117576,20.7363752 Z M39.7198952,29.9422678 L36.2896274,27.263874 C36.0522281,27.0786107 35.7326352,27.0379511 35.4563251,27.1580717 L28.8060825,30.0525514 L28.8060825,29.1524668 C29.3029598,28.7477293 30.4319184,27.7935413 31.785051,26.4241229 L39.1952557,23.168735 L39.7198952,29.9422678 Z M38.955889,20.0790457 L39.0608169,21.4334899 L34.4316386,23.467233 C34.8912446,22.8974527 35.3198095,22.3307327 35.7175518,21.7670732 L38.955889,20.0790457 Z M17.0068315,20.0790457 L20.411523,21.8538573 C20.9157234,22.5628857 21.4680158,23.2770512 22.0699303,23.9959166 C22.5962093,24.6243909 23.1207394,25.2083802 23.625377,25.742966 L16.645486,24.7441836 L17.0068315,20.0790457 Z M14.6251868,29.5553462 L4.21721407,35.0570655 L4.72414696,32.2618301 L4.73715365,32.1898014 L14.8331845,26.8689735 L14.6251868,29.5553462 Z M14.9832533,24.9330538 L5.10964767,30.1367123 L5.95694042,25.4647978 L15.346894,20.2377491 L15.1109156,23.2851394 L14.9832533,24.9330538 Z M15.2650284,42.5684818 L16.0426971,32.5272102 L25.7452484,47.27417 L15.2650284,42.5684818 Z M27.1599169,39.4027198 L22.100097,31.4284184 L27.1599169,32.0342677 L27.1599169,39.4027198 Z M27.1599169,30.379686 L20.5768938,29.5915244 C20.2622194,29.5544718 19.9534472,29.7008243 19.7843603,29.9692649 C19.6152733,30.2375961 19.6158198,30.5792676 19.7857812,30.8472709 L27.1599169,42.4689096 L27.1599169,46.4358399 L16.2497111,29.853407 L16.5183702,26.3855401 L25.5807521,27.682274 C26.2642043,28.3165412 26.8182454,28.7875145 27.1598076,29.0687431 L27.1598076,30.379686 L27.1599169,30.379686 Z M28.0339881,27.6562606 C25.9598041,25.9069158 18.1868331,18.8582752 18.1868331,11.4900417 C18.1868331,6.06024173 22.6041881,1.64277735 28.0339881,1.64277735 C33.4637881,1.64277735 37.8812524,6.06024173 37.8812524,11.4900417 C37.8812524,18.8582752 30.1081721,25.9070251 28.0339881,27.6562606 Z M28.8026942,47.909421 L28.8026942,44.2635045 L31.2582256,46.8068037 L28.8026942,47.909421 Z M32.8511622,46.0915452 L28.8026942,41.8983642 L28.8026942,31.8453975 L35.663667,28.8593245 L39.891496,32.1605091 L40.6975827,42.5684818 L32.8511622,46.0915452 Z M40.79792,22.5902107 L43.6457287,21.9242464 L45.665372,23.0485051 L46.7828541,23.6706401 L40.9817624,24.9652973 L40.79792,22.5902107 Z M42.3424368,42.5314292 L41.7011743,34.2519625 L52.2529857,46.9814649 L42.3424368,42.5314292 Z M41.4813722,31.4126792 L41.2581819,28.5304411 L41.2487821,28.4083531 L53.0192873,42.0806764 L53.774003,46.2420512 L41.4813722,31.4126792 Z" id="Shape" fill="#000000" fill-rule="nonzero"></path>
                        <path d="M28.0339881,6.41349897 C27.5803936,6.41349897 27.2125994,6.78118381 27.2125994,7.23488765 C27.2125994,7.6885915 27.5803936,8.05627633 28.0339881,8.05627633 C29.9273901,8.05627633 31.4677535,9.59663968 31.4677535,11.4900417 C31.4677535,13.3833344 29.9273901,14.923807 28.0339881,14.923807 C26.1405861,14.923807 24.6002227,13.3834437 24.6002227,11.4900417 C24.6002227,10.5842735 24.9497638,9.72965765 25.5845776,9.0834767 C25.9025309,8.75994902 25.8979403,8.23990014 25.5743034,7.92205606 C25.2506664,7.60410268 24.7306175,7.60858398 24.4127734,7.93233025 C23.4743246,8.88750199 22.9575547,10.1510087 22.9575547,11.4900417 C22.9575547,14.2892119 25.2348179,16.5665844 28.0340974,16.5665844 C30.8333769,16.5665844 33.1106401,14.2892119 33.1106401,11.4900417 C33.1105308,8.69076219 30.8332676,6.41349897 28.0339881,6.41349897 Z" id="Path" fill="#000000" fill-rule="nonzero"></path>
                    </g>
                </g>
            </g>
        </g>
    </g>
</svg>