<?xml version="1.0" encoding="UTF-8"?>
<svg width="23px" height="35px" viewBox="0 0 23 35" version="1.1" xmlns="http://www.w3.org/2000/svg" xmlns:xlink="http://www.w3.org/1999/xlink">
    <title>ico14SVG</title>
    <defs>
        <filter id="filter-1">
            <feColorMatrix in="SourceGraphic" type="matrix" values="0 0 0 0 0.905882 0 0 0 0 0.019608 0 0 0 0 0.188235 0 0 0 1.000000 0"></feColorMatrix>
        </filter>
    </defs>
    <g id="Page-1" stroke="none" stroke-width="1" fill="none" fill-rule="evenodd">
        <g id="Desktop-HD" transform="translate(-359.000000, -2819.000000)">
            <g id="Group-38" transform="translate(113.000000, 2599.000000)">
                <g id="ico14" transform="translate(246.000000, 220.000000)" filter="url(#filter-1)">
                    <g id="update" fill="#000000" fill-rule="nonzero">
                        <path d="M20.4471729,0.0525 L2.55282707,0.0525 C1.17369628,0.054235955 0.056171138,1.18527938 0.0546466165,2.5809 L0.0546466165,32.4191 C0.056171138,33.8147206 1.17369628,34.945764 2.55282707,34.9475 L20.4471729,34.9475 C21.8263037,34.945764 22.9438289,33.8147206 22.9453534,32.4191 L22.9453534,2.5809 C22.9438289,1.18527938 21.8263037,0.054235955 20.4471729,0.0525 Z M21.7348271,32.4191 C21.7342552,33.1385715 21.1581435,33.7217281 20.4471729,33.7225 L2.55282707,33.7225 C1.84185652,33.7217281 1.26574481,33.1385715 1.26517293,32.4191 L1.26517293,2.5809 C1.26574481,1.86142853 1.84185652,1.27827194 2.55282707,1.2775 L20.4471729,1.2775 C21.1581435,1.27827194 21.7342552,1.86142853 21.7348271,2.5809 L21.7348271,32.4191 Z" id="Shape"></path>
                        <path d="M19.621594,3.6196999 L3.37840602,3.6196999 C3.21785211,3.6196999 3.0638477,3.6841083 2.95031893,3.79899448 C2.83679016,3.91388066 2.77314276,4.06972643 2.77314276,4.2322 L2.77314276,29.9222 C2.77314276,30.0846736 2.83679016,30.2405193 2.95031893,30.3554055 C3.0638477,30.4702917 3.21785211,30.5347001 3.37840602,30.5347001 L19.621594,30.5347001 C19.7821479,30.5347001 19.9361523,30.4702917 20.0496811,30.3554055 C20.1632098,30.2405193 20.2268572,30.0846736 20.2268572,29.9222 L20.2268572,4.2322 C20.2268572,4.06972643 20.1632098,3.91388066 20.0496811,3.79899448 C19.9361523,3.6841083 19.7821479,3.6196999 19.621594,3.6196999 Z M19.0163308,29.3097 L3.98366917,29.3097 L3.98366917,4.8447 L19.0163308,4.8447 L19.0163308,29.3097 Z" id="Shape"></path>
                        <path d="M10.6785714,3.03345 L12.3214286,3.03345 C12.6557062,3.03345 12.9266917,2.7592244 12.9266917,2.42095 C12.9266917,2.0826756 12.6557062,1.80845 12.3214286,1.80845 L10.6785714,1.80845 C10.3442938,1.80845 10.0733083,2.08267559 10.0733083,2.42095 C10.0733083,2.75922441 10.3442938,3.03345 10.6785714,3.03345 L10.6785714,3.03345 Z" id="Path"></path>
                        <path d="M11.5,31.10625 C10.9626726,31.10625 10.5270827,31.547048 10.5270827,32.0908 C10.5270827,32.634552 10.9626726,33.07535 11.5,33.07535 C12.0373274,33.07535 12.4729173,32.634552 12.4729173,32.0908 C12.4725358,31.547208 12.0371693,31.1066361 11.5,31.10625 L11.5,31.10625 Z" id="Path"></path>
                        <path d="M6.91936842,15.01885 C7.05560182,15.1048746 7.22004491,15.1325541 7.37646109,15.0957892 C7.53287726,15.0590242 7.6684297,14.9608319 7.75324812,14.82285 C8.6681971,13.332073 10.3618417,12.5226225 12.0807969,12.7545669 C13.799752,12.9865114 15.2246389,14.2167559 15.7216241,15.89805 L15.0810827,15.4609 C14.8043656,15.2808968 14.4362423,15.3575026 14.2521677,15.6333957 C14.0680932,15.9092888 14.1354689,16.2834472 14.4038797,16.4759 L16.1778195,17.6862 C16.4491151,17.8715109 16.816838,17.8049945 17.0078947,17.53605 L18.195594,15.86655 C18.3909076,15.5919678 18.3292778,15.2091489 18.0579398,15.0115 C17.7866019,14.8138511 17.4083061,14.8762178 17.2129925,15.1508 L16.8954887,15.5967 C16.2781365,13.4403561 14.4648666,11.8534192 12.267249,11.5461588 C10.0696314,11.2388984 7.89907743,12.2688362 6.72706767,14.175 C6.54998624,14.4617746 6.63606727,14.8395135 6.91936842,15.01885 L6.91936842,15.01885 Z" id="Path"></path>
                        <path d="M4.94240602,19.3459 C5.07278455,19.4407642 5.23507156,19.4793103 5.39354281,19.4530531 C5.55201407,19.4267959 5.69367917,19.3378877 5.78735338,19.2059 L6.10451128,18.76 C6.72126012,20.9167622 8.53440818,22.5043087 10.7322123,22.8118977 C12.9300163,23.1194868 15.1008882,22.0895154 16.2729323,20.1831 C16.4466358,19.8961368 16.3590282,19.5211049 16.0767372,19.3432245 C15.7944462,19.1653442 15.4232128,19.2512461 15.2453684,19.5356 C14.3303646,21.0263666 12.6366685,21.8357655 10.9177032,21.6037442 C9.19873779,21.3717229 7.77389162,20.1413915 7.27699248,18.46005 L7.91753383,18.89755 C8.09663064,19.0259639 8.33039209,19.0461942 8.52843498,18.9504188 C8.72647788,18.8546434 8.85776147,18.657874 8.87152534,18.4361908 C8.88528921,18.2145077 8.77937603,18.0026569 8.59473684,17.88255 L6.82079699,16.6719 C6.54950149,16.4865891 6.18177853,16.5531055 5.9907218,16.82205 L4.80302256,18.4919 C4.60873138,18.7667364 4.6711024,19.1488825 4.94240602,19.3459 L4.94240602,19.3459 Z" id="Path"></path>
                    </g>
                </g>
            </g>
        </g>
    </g>
</svg>