<?xml version="1.0" encoding="UTF-8"?>
<svg width="29px" height="29px" viewBox="0 0 29 29" version="1.1" xmlns="http://www.w3.org/2000/svg" xmlns:xlink="http://www.w3.org/1999/xlink">
    <title>ico6SVG</title>
    <defs>
        <filter id="filter-1">
            <feColorMatrix in="SourceGraphic" type="matrix" values="0 0 0 0 0.905882 0 0 0 0 0.019608 0 0 0 0 0.188235 0 0 0 1.000000 0"></feColorMatrix>
        </filter>
        <polygon id="path-2" points="0.000241666667 0 29 0 29 28.9998792 0.000241666667 28.9998792"></polygon>
    </defs>
    <g id="Page-1" stroke="none" stroke-width="1" fill="none" fill-rule="evenodd">
        <g id="Desktop-HD" transform="translate(-129.000000, -2685.000000)">
            <g id="Group-38" transform="translate(113.000000, 2599.000000)">
                <g id="Group-35" transform="translate(0.000000, 69.000000)">
                    <g id="ico6" transform="translate(16.000000, 17.000000)" filter="url(#filter-1)">
                        <g id="Group-20">
                            <path d="M21.3078104,24.614475 C21.0619146,24.614475 20.8619354,24.8072042 20.8619354,25.0543083 C20.8619354,25.2941625 21.0619146,25.4929333 21.3078104,25.4929333 C21.5482687,25.4929333 21.7409979,25.2941625 21.7409979,25.0543083 C21.7409979,24.8072042 21.5482687,24.614475 21.3078104,24.614475" id="Fill-1" fill="#1A171B"></path>
                            <path d="M21.3078104,22.8863167 C21.0619146,22.8863167 20.8619354,23.0790458 20.8619354,23.3255458 C20.8619354,23.5660042 21.0619146,23.764775 21.3078104,23.764775 C21.5482687,23.764775 21.7409979,23.5660042 21.7409979,23.3255458 C21.7409979,23.0790458 21.5482687,22.8863167 21.3078104,22.8863167" id="Fill-3" fill="#1A171B"></path>
                            <path d="M21.3078104,21.1582187 C21.0619146,21.1582187 20.8619354,21.3509479 20.8619354,21.5980521 C20.8619354,21.8373021 21.0619146,22.0366771 21.3078104,22.0366771 C21.5482687,22.0366771 21.7409979,21.8373021 21.7409979,21.5980521 C21.7409979,21.3509479 21.5482687,21.1582187 21.3078104,21.1582187" id="Fill-5" fill="#1A171B"></path>
                            <path d="M21.3078104,15.9785771 C21.0619146,15.9785771 20.8619354,16.1719104 20.8619354,16.4184104 C20.8619354,16.6582646 21.0619146,16.8576396 21.3078104,16.8576396 C21.5482687,16.8576396 21.7409979,16.6582646 21.7409979,16.4184104 C21.7409979,16.1719104 21.5482687,15.9785771 21.3078104,15.9785771" id="Fill-7" fill="#1A171B"></path>
                            <path d="M21.3078104,17.7013583 C21.0619146,17.7013583 20.8619354,17.9007333 20.8619354,18.1411917 C20.8619354,18.3870875 21.0619146,18.5804208 21.3078104,18.5804208 C21.5482687,18.5804208 21.7409979,18.3870875 21.7409979,18.1411917 C21.7409979,17.9007333 21.5482687,17.7013583 21.3078104,17.7013583" id="Fill-9" fill="#1A171B"></path>
                            <path d="M21.3078104,19.4300604 C21.0619146,19.4300604 20.8619354,19.6288313 20.8619354,19.8692896 C20.8619354,20.1097479 21.0619146,20.3085187 21.3078104,20.3085187 C21.5482687,20.3085187 21.7409979,20.1097479 21.7409979,19.8692896 C21.7409979,19.6288313 21.5482687,19.4300604 21.3078104,19.4300604" id="Fill-11" fill="#1A171B"></path>
                            <path d="M21.30485,7.43759375 C22.6044125,7.43759375 23.6617042,8.49488542 23.6617042,9.79384375 C23.6617042,11.0940104 22.6044125,12.1519062 21.30485,12.1519062 C20.0058917,12.1519062 18.9486,11.0940104 18.9486,9.79384375 C18.9486,8.49488542 20.0058917,7.43759375 21.30485,7.43759375 M21.30485,13.0309687 C23.0889542,13.0309687 24.5401625,11.5785521 24.5401625,9.79384375 C24.5401625,8.00973958 23.0889542,6.55853125 21.30485,6.55853125 C19.5207458,6.55853125 18.0695375,8.00973958 18.0695375,9.79384375 C18.0695375,11.5785521 19.5207458,13.0309687 21.30485,13.0309687" id="Fill-13" fill="#1A171B"></path>
                            <g id="Group-17">
                                <mask id="mask-3" fill="white">
                                    <use xlink:href="#path-2"></use>
                                </mask>
                                <g id="Clip-16"></g>
                                <path d="M28.1211792,26.9644417 C28.1211792,27.6030458 27.6022,28.1214208 26.9642,28.1214208 C26.3262,28.1214208 25.8066167,27.6030458 25.8066167,26.9644417 L25.8066167,18.4348167 C25.8066167,18.1919417 25.6102625,17.9949833 25.3673875,17.9949833 C25.1251167,17.9949833 24.9281583,18.1919417 24.9281583,18.4348167 L24.9281583,26.3403375 L17.6817833,26.3403375 L17.6817833,20.3802333 C17.6817833,19.5301708 17.3513042,18.7314625 16.7519708,18.1285042 L11.1767208,12.5260667 L12.0859917,12.5260667 C12.3288667,12.5260667 12.525825,12.3285042 12.525825,12.0868375 L12.525825,10.5927333 L15.9641375,14.03165 C16.6704083,14.7391292 17.6110958,15.1276083 18.6109917,15.1276083 L25.3673875,15.1276083 C26.8862625,15.1276083 28.1211792,16.3631292 28.1211792,17.8820042 L28.1211792,26.9644417 Z M25.3673875,14.24915 L18.6109917,14.24915 C17.8461167,14.24915 17.12595,13.9512958 16.5852208,13.4105667 L12.525825,9.3499625 L12.525825,7.53323333 C12.525825,7.29035833 12.3288667,7.0934 12.0859917,7.0934 C11.8437208,7.0934 11.6467625,7.29035833 11.6467625,7.53323333 L11.6467625,11.6464 L0.8787,11.6464 L0.8787,0.878941667 L11.6467625,0.878941667 L11.6467625,1.66012917 C11.6467625,1.90360833 11.8437208,2.10056667 12.0859917,2.10056667 C12.3288667,2.10056667 12.525825,1.90360833 12.525825,1.66012917 L12.525825,0.440316667 C12.525825,0.1968375 12.3288667,-0.000120833333 12.0859917,-0.000120833333 L0.439470833,-0.000120833333 C0.196595833,-0.000120833333 0.000241666667,0.1968375 0.000241666667,0.440316667 L0.000241666667,12.0868375 C0.000241666667,12.3285042 0.196595833,12.5260667 0.439470833,12.5260667 L9.93636667,12.5260667 L16.129075,18.747775 C16.564075,19.1845875 16.8027208,19.7645875 16.8027208,20.3802333 L16.8027208,28.1383375 C16.8027208,28.3806083 16.9996792,28.5775667 17.2425542,28.5775667 C17.484825,28.5775667 17.6817833,28.3806083 17.6817833,28.1383375 L17.6817833,27.2187958 L24.9541375,27.2187958 C25.0804083,28.2205042 25.9292625,28.9998792 26.9642,28.9998792 C28.0867417,28.9998792 29.0002417,28.0869833 29.0002417,26.9644417 L29.0002417,17.8820042 C29.0002417,15.8779833 27.3708042,14.24915 25.3673875,14.24915 L25.3673875,14.24915 Z" id="Fill-15" fill="#1A171B" mask="url(#mask-3)"></path>
                            </g>
                            <path d="M3.71761875,4.9985125 C3.54603542,4.82692917 3.26811875,4.82692917 3.09653542,4.9985125 C2.92495208,5.17009583 2.92495208,5.4480125 3.09653542,5.61959583 L6.95897292,9.4826375 C7.04476458,9.567825 7.15713958,9.611325 7.26951458,9.611325 C7.38188958,9.611325 7.49426458,9.567825 7.58005625,9.4826375 L16.3120771,0.750616667 C16.4836604,0.579033333 16.4836604,0.301116667 16.3120771,0.128929167 C16.1404938,-0.0426541667 15.8625771,-0.0426541667 15.6903896,0.128929167 L7.26951458,8.55040833 L3.71761875,4.9985125 Z" id="Fill-18" fill="#1A171B"></path>
                        </g>
                    </g>
                </g>
            </g>
        </g>
    </g>
</svg>